<?xml version="1.0" standalone="no"?>
<!DOCTYPE svg PUBLIC "-//W3C//DTD SVG 1.1//EN" "http://www.w3.org/Graphics/SVG/1.1/DTD/svg11.dtd" >
<svg xmlns="http://www.w3.org/2000/svg" xmlns:xlink="http://www.w3.org/1999/xlink" version="1.1">
<metadata></metadata>
<defs>
<font id="tt_bluescreens_roundbold" horiz-adv-x="230" >
<font-face units-per-em="1000" ascent="800" descent="-200" />
<missing-glyph horiz-adv-x="120" />
<glyph horiz-adv-x="0" />
<glyph unicode="&#xd;" horiz-adv-x="0" />
<glyph horiz-adv-x="0" />
<glyph unicode=" "  horiz-adv-x="120" />
<glyph unicode="&#x09;" horiz-adv-x="120" />
<glyph unicode="&#xa0;" horiz-adv-x="120" />
<glyph unicode="!" horiz-adv-x="140" d="M75 160h-10q-8 0 -14.5 6t-6.5 14l-9 170v329q0 9 6 15t15 6h28q9 0 15 -6t6 -15v-329l-9 -170q0 -8 -6.5 -14t-14.5 -6zM110 35q0 -40 -40 -40t-40 40t40 40t40 -40z" />
<glyph unicode="&#x22;" horiz-adv-x="210" d="M29 535l-8 143q0 9 6 15.5t15 6.5h21q9 0 15 -6.5t6 -15.5l-8 -143q0 -8 -6.5 -14t-14.5 -6h-5q-8 0 -14.5 6t-6.5 14zM134 535l-8 143q0 9 6 15.5t15 6.5h21q9 0 15 -6.5t6 -15.5l-8 -143q0 -8 -6.5 -14t-14.5 -6h-5q-8 0 -14.5 6t-6.5 14z" />
<glyph unicode="#" horiz-adv-x="385" d="M68 0h-22q-8 0 -14.5 5.5t-6.5 14.5q0 4 1 6l28 128q0 2 0.5 3t0.5 3q0 9 -6.5 14.5t-14.5 5.5h-8q-9 0 -15 5.5t-6 15.5q0 1 0.5 2t0.5 3l5 23q2 6 8 11t13 5h26q7 0 13 5t8 11l40 168v5q0 9 -5.5 15t-15.5 6h-12q-9 0 -15 5.5t-6 15.5q0 1 0.5 2t0.5 3l5 23q2 6 8 11 t13 5h31q7 0 13 5t8 11l32 148q2 6 8 11t13 5h22q8 0 14.5 -5.5t6.5 -14.5q0 -2 -0.5 -3t-0.5 -3l-28 -128q-1 -2 -1 -6q0 -9 6.5 -14.5t14.5 -5.5h17q7 0 13 5t8 11l32 148q2 6 8 11t13 5h22q8 0 14.5 -5.5t6.5 -14.5q0 -2 -0.5 -3t-0.5 -3l-28 -128q-1 -2 -1 -6 q0 -9 6.5 -14.5t14.5 -5.5h3q8 0 14 -6t6 -15v-5l-5 -23q-2 -6 -8 -11t-13 -5h-21q-7 0 -13 -5t-8 -11l-40 -168q-1 -2 -1 -6q0 -20 22 -20h7q8 0 14 -6t6 -15v-5l-5 -23q-2 -6 -8 -11t-13 -5h-26q-7 0 -13 -5t-8 -11l-32 -148q-2 -6 -8 -11t-13 -5h-22q-8 0 -14.5 5.5 t-6.5 14.5q0 4 1 6l28 128q0 2 0.5 3t0.5 3q0 9 -6.5 14.5t-14.5 5.5h-17q-7 0 -13 -5t-8 -11l-32 -148q-2 -6 -8 -11t-13 -5zM186 439l-40 -168q-1 -2 -1 -6q0 -20 22 -20h16q7 0 13 5t8 11l40 168v5q0 9 -5.5 15t-15.5 6h-16q-7 0 -13 -5t-8 -11z" />
<glyph unicode="$" horiz-adv-x="260" d="M139 -80h-23q-9 0 -15 6t-6 15v34q0 7 -6.5 13t-15 12t-17.5 12.5t-15 13.5q-21 25 -21 74v119q0 9 6 15t15 6h28q9 0 15 -6t6 -15v-119q0 -45 40 -45t40 45q0 61 -16.5 108.5t-39 92t-46 92t-37.5 108.5q-11 46 -11 99q0 44 16.5 68.5t45.5 36.5q4 2 8.5 8.5t4.5 11.5 v34q0 9 6 15t15 6h23q9 0 15 -6t6 -15v-33q0 -7 7 -13.5t17 -13t19.5 -12.5t15.5 -13q21 -26 21 -74v-89q0 -9 -6 -15t-15 -6h-28q-9 0 -15 6t-6 15v89q0 45 -40 45t-40 -45q0 -63 17 -113.5t40 -97t46.5 -92t35.5 -97.5q11 -47 11 -100q0 -45 -17 -68.5t-49 -37.5 q-5 -2 -9.5 -8.5t-4.5 -11.5v-33q0 -9 -6 -15t-15 -6z" />
<glyph unicode="%" horiz-adv-x="440" d="M129 0h-16q-21 0 -21 20q0 4 1 7l198 658q1 6 7 10.5t13 4.5h16q9 0 15 -6t6 -14q0 -5 -1 -7l-198 -658q-1 -6 -7 -10.5t-13 -4.5zM175 420q0 -38 -20.5 -59t-54.5 -21q-35 0 -55 21.5t-20 58.5v210q0 36 20 58t55 22q34 0 54.5 -21t20.5 -59v-210zM80 630v-210 q0 -11 6 -18t14 -7t14 7t6 18v210q0 11 -6 18t-14 7t-14 -7t-6 -18zM415 70q0 -38 -20.5 -59t-54.5 -21q-35 0 -55 21.5t-20 58.5v210q0 36 20 58t55 22q34 0 54.5 -21t20.5 -59v-210zM320 280v-210q0 -11 6 -18t14 -7t14 7t6 18v210q0 11 -6 18t-14 7t-14 -7t-6 -18z" />
<glyph unicode="&#x26;" horiz-adv-x="290" d="M215 689v-28q0 -9 -6 -15t-15 -6h-54q-35 0 -35 -45v-155q0 -45 35 -45h18q7 0 13 5t7 12l14 71q1 7 7 12t13 5h12q9 0 15 -6t6 -15v-66q0 -18 17 -18q18 0 18 -17v-35q0 -18 -18 -18q-17 0 -17 -17v-287q0 -9 -6 -15t-15 -6h-31q-13 0 -13 13v12h-5q-4 -8 -12 -16l-4 -3 q-9 -7 -20 -11.5t-29 -4.5q-33 0 -59 29t-26 81v180q0 60 55 80v5q-45 20 -45 75v155q0 52 27.5 83.5t77.5 31.5h54q9 0 15 -6t6 -15zM155 325h-20q-40 0 -40 -45v-180q0 -45 40 -45t40 45v205q0 8 -6 14t-14 6z" />
<glyph unicode="'" horiz-adv-x="105" d="M29 535l-8 143q0 9 6 15.5t15 6.5h21q9 0 15 -6.5t6 -15.5l-8 -143q0 -8 -6.5 -14t-14.5 -6h-5q-8 0 -14.5 6t-6.5 14z" />
<glyph unicode="(" horiz-adv-x="195" d="M155 685q-40 0 -40 -45v-670q0 -45 40 -45h20q8 0 14 -6t6 -14v-30q0 -8 -6 -14t-14 -6h-20q-51 0 -80.5 32t-29.5 83v670q0 51 29.5 83t80.5 32h20q8 0 14 -6t6 -14v-30q0 -8 -6 -14t-14 -6h-20z" />
<glyph unicode=")" horiz-adv-x="195" d="M40 685h-20q-8 0 -14 6t-6 14v30q0 8 6 14t14 6h20q49 0 79.5 -30.5t30.5 -84.5v-670q0 -54 -30.5 -84.5t-79.5 -30.5h-20q-8 0 -14 6t-6 14v30q0 8 6 14t14 6h20q40 0 40 45v670q0 45 -40 45z" />
<glyph unicode="*" horiz-adv-x="260" d="M113 499l-26 -34q-8 -8 -17 -8q-7 0 -11 3l-6 4q-10 5 -10 18q0 7 4 11l24 35q3 6 3 12q0 16 -13 20l-34 13q-14 5 -14 19q0 3 1 5l1 7q2 8 7.5 12.5t12.5 4.5q2 0 3 -0.5t3 -0.5l34 -9q2 -1 5 -1q8 0 14.5 6t6.5 14l3 50q0 8 6.5 14t14.5 6h10q8 0 14.5 -6t6.5 -14 l3 -50q0 -8 6.5 -14t14.5 -6q3 0 5 1l34 9q2 0 3 0.5t2 0.5q16 0 21 -17l1 -7q0 -2 0.5 -2.5t0.5 -2.5q0 -6 -4.5 -11.5t-9.5 -7.5l-34 -13q-14 -5 -14 -20q0 -4 4 -12l24 -35q3 -5 3 -11q0 -5 -2 -10.5t-7 -7.5l-6 -4q-5 -3 -11 -3q-11 0 -17 8l-26 34q-8 8 -17 8 q-11 0 -17 -8z" />
<glyph unicode="+" horiz-adv-x="275" d="M84 290h-43q-9 0 -15 6t-6 15v23q0 9 6 15t15 6h43q9 0 15 6t6 15v53q0 9 6 15t15 6h23q9 0 15 -6t6 -15v-53q0 -9 6 -15t15 -6h43q9 0 15 -6t6 -15v-23q0 -9 -6 -15t-15 -6h-43q-9 0 -15 -6t-6 -15v-53q0 -9 -6 -15t-15 -6h-23q-9 0 -15 6t-6 15v53q0 9 -6 15t-15 6z " />
<glyph unicode="," horiz-adv-x="115" d="M95 30q0 -20 -5 -37.5t-12.5 -33t-20 -28.5t-20.5 -13q-4 0 -7 6q-2 6 -2 8q0 5 5 10q17 18 22 46q0 7 -7 7q-33 4 -33 40q0 40 40 40t40 -45z" />
<glyph unicode="-" horiz-adv-x="260" d="M219 290h-178q-9 0 -15 6t-6 15v23q0 9 6 15t15 6h178q9 0 15 -6t6 -15v-23q0 -9 -6 -15t-15 -6z" />
<glyph unicode="." horiz-adv-x="120" d="M100 35q0 -40 -40 -40t-40 40t40 40t40 -40z" />
<glyph unicode="/" horiz-adv-x="295" d="M9 27l211 658q2 6 8 10.5t12 4.5h26q10 0 15.5 -6t5.5 -14q0 -5 -1 -7l-211 -658q-2 -6 -8 -10.5t-12 -4.5h-26q-10 0 -16 6t-6 14q0 1 2 7z" />
<glyph unicode="0" horiz-adv-x="290" d="M145 55q40 0 40 45v500q0 45 -40 45t-40 -45v-500q0 -45 40 -45zM145 715q49 0 79.5 -30.5t30.5 -84.5v-500q0 -54 -30.5 -84.5t-79.5 -30.5q-51 0 -80.5 32t-29.5 83v500q0 51 29.5 83t80.5 32z" />
<glyph unicode="1" horiz-adv-x="210" d="M15 21v28q0 9 6 15t15 6h13q9 0 15 6t6 15v484h-5l-18 -11l-20 -6l-19 -3q-8 0 -8 9v24q0 9 11.5 15.5t26 15t28 22t17.5 37.5q1 7 8.5 14.5t14.5 7.5h13q9 0 15 -6t6 -15v-588q0 -9 6 -15t15 -6h13q9 0 15 -6t6 -15v-28q0 -9 -6 -15t-15 -6h-138q-9 0 -15 6t-6 15z" />
<glyph unicode="2" horiz-adv-x="260" d="M240 600q0 -64 -12 -113.5t-29 -90t-36 -75t-34 -67.5q-16 -35 -26.5 -74.5t-12.5 -87.5q0 -9 6 -15.5t15 -6.5h108q9 0 15 -6t6 -15v-28q0 -9 -6 -15t-15 -6h-178q-9 0 -15 6t-6 15v49q0 60 10.5 105.5t26.5 84.5t35.5 76t38.5 80q17 38 28 81t11 103q0 45 -40 45 t-40 -45v-99q0 -9 -6 -15t-15 -6h-28q-9 0 -15 6t-6 15v99q0 51 29.5 83t80.5 32q49 0 79.5 -30.5t30.5 -84.5z" />
<glyph unicode="3" horiz-adv-x="265" d="M41 250h28q9 0 15 -6t6 -15v-129q0 -45 40 -45t40 45v210q0 23 -10 34t-25 11h-44q-9 0 -15 6t-6 15v54l80 170q3 6 3 11q0 19 -22 19h-85q-9 0 -15 6t-6 15v28q0 9 6 15t15 6h168q9 0 15 -6t6 -15v-49l-86 -186q-1 -2 -1 -6q0 -12 12 -15q29 -6 51 -29q29 -32 29 -84 v-210q0 -54 -30.5 -84.5t-79.5 -30.5q-51 0 -80.5 32t-29.5 83v129q0 9 6 15t15 6z" />
<glyph unicode="4" horiz-adv-x="280" d="M10 171v46q0 4 1 6l135 462q1 6 7 10.5t13 4.5h38q9 0 15 -6t6 -15v-438q0 -9 6 -15t15 -6h3q9 0 15 -6t6 -15v-28q0 -9 -6 -15t-15 -6h-3q-9 0 -15 -6t-6 -15v-108q0 -9 -6 -15t-15 -6h-28q-9 0 -15 6t-6 15v108q0 9 -6 15t-15 6h-103q-9 0 -15 6t-6 15zM108 220h26 q9 0 15 6t6 15v219h-5l-62 -213q-1 -3 -1 -7q0 -20 21 -20z" />
<glyph unicode="5" horiz-adv-x="270" d="M46 250h28q9 0 15 -6t6 -15v-129q0 -45 40 -45t40 45v235q0 45 -40 45q-30 0 -40 -30q-5 -15 -21 -15h-27q-9 0 -15 6.5t-6 15.5l18 323q0 8 6.5 14t14.5 6h149q9 0 15 -6t6 -15v-28q0 -9 -6 -15t-15 -6h-84q-8 0 -14.5 -6t-6.5 -14l-9 -180h5q20 20 43 20q39 0 68 -30.5 t29 -84.5v-235q0 -54 -30.5 -84.5t-79.5 -30.5q-51 0 -80.5 32t-29.5 83v129q0 9 6 15t15 6z" />
<glyph unicode="6" horiz-adv-x="285" d="M255 100q0 -54 -30.5 -84.5t-79.5 -30.5q-51 0 -80.5 32t-29.5 83v500q0 51 29.5 83t80.5 32q49 0 79.5 -30.5t30.5 -84.5v-89q0 -9 -6 -15t-15 -6h-28q-9 0 -15 6t-6 15v89q0 45 -40 45t-40 -45v-195h5q20 25 60 25q35 0 60 -28t25 -82v-220zM145 55q40 0 40 45v220 q0 45 -40 45t-40 -45v-220q0 -45 40 -45z" />
<glyph unicode="7" d="M25 25l120 580v5q0 8 -5.5 14t-15.5 6h-93q-9 0 -15 6t-6 15v28q0 9 6 15t15 6h168q9 0 15 -6t6 -15v-51l-127 -611q-1 -7 -7 -12t-13 -5h-27q-10 0 -16 6t-6 14z" />
<glyph unicode="8" horiz-adv-x="270" d="M135 -15q-51 0 -80.5 32t-29.5 83v170q0 55 55 80v5q-50 20 -50 75v170q0 53 30 84t75 31t75 -31t30 -84v-170q0 -55 -50 -75v-5q55 -25 55 -80v-170q0 -54 -30.5 -84.5t-79.5 -30.5zM135 55q40 0 40 45v170q0 45 -40 45t-40 -45v-170q0 -45 40 -45zM135 385q15 0 25 11 t10 34v170q0 23 -10 34t-25 11t-25 -11t-10 -34v-170q0 -23 10 -34t25 -11z" />
<glyph unicode="9" horiz-adv-x="285" d="M30 380v220q0 51 29.5 83t80.5 32q49 0 79.5 -30.5t30.5 -84.5v-500q0 -54 -30.5 -84.5t-79.5 -30.5q-51 0 -80.5 32t-29.5 83v89q0 9 6 15t15 6h28q9 0 15 -6t6 -15v-89q0 -45 40 -45t40 45v195h-5q-25 -25 -60 -25q-33 0 -59 29t-26 81zM140 645q-40 0 -40 -45v-220 q0 -45 40 -45t40 45v220q0 45 -40 45z" />
<glyph unicode=":" horiz-adv-x="120" d="M100 35q0 -40 -40 -40t-40 40t40 40t40 -40zM100 510q0 -40 -40 -40t-40 40t40 40t40 -40z" />
<glyph unicode=";" horiz-adv-x="120" d="M100 510q0 -40 -40 -40t-40 40t40 40t40 -40zM100 30q0 -20 -5 -37.5t-12.5 -33t-20 -28.5t-20.5 -13q-4 0 -7 6q-2 6 -2 8q0 5 5 10q17 18 22 46q0 7 -7 7q-33 4 -33 40q0 40 40 40t40 -45z" />
<glyph unicode="&#x3c;" horiz-adv-x="300" d="M20 249v47q0 5 4 11t9 8l218 93q3 1 8 1q9 0 15 -5.5t6 -15.5v-20q0 -5 -4 -11t-9 -8l-172 -74v-5l172 -74q5 -2 9 -8t4 -11v-20q0 -10 -6 -16t-15 -6q-2 0 -8 2l-218 93q-5 2 -9 8t-4 11z" />
<glyph unicode="=" horiz-adv-x="265" d="M25 246v23q0 9 6 15t15 6h173q9 0 15 -6t6 -15v-23q0 -9 -6 -15t-15 -6h-173q-9 0 -15 6t-6 15zM25 371v23q0 9 6 15t15 6h173q9 0 15 -6t6 -15v-23q0 -9 -6 -15t-15 -6h-173q-9 0 -15 6t-6 15z" />
<glyph unicode="&#x3e;" horiz-adv-x="300" d="M280 296v-47q0 -5 -4 -11t-9 -8l-218 -93q-6 -2 -8 -2q-9 0 -15 6t-6 16v20q0 5 4 11t9 8l172 74v5l-172 74q-5 2 -9 8t-4 11v20q0 10 6 15.5t15 5.5q5 0 8 -1l218 -93q5 -2 9 -8t4 -11z" />
<glyph unicode="?" horiz-adv-x="250" d="M165 600q0 45 -40 45t-40 -45v-114q0 -9 -6 -15t-15 -6h-28q-9 0 -15 6t-6 15v114q0 51 29.5 83t80.5 32q49 0 79.5 -30.5t30.5 -84.5q0 -55 -6 -95t-15.5 -72.5t-21 -60t-21.5 -56.5t-17 -62.5t-9 -78.5q0 -8 -6.5 -14t-14.5 -6h-18q-9 0 -15 6t-6 15q2 48 8.5 84 t15.5 66t19 58t18 59t13.5 68.5t5.5 88.5zM155 35q0 -40 -40 -40t-40 40t40 40t40 -40z" />
<glyph unicode="@" horiz-adv-x="440" d="M200 310v-120q0 -11 6 -18t14 -7t14 7t6 18v135q0 10 -10 10h-10q-8 0 -14 -7t-6 -18zM30 160v355q0 41 14.5 77.5t40 63.5t60 43t75.5 16q38 0 72.5 -14.5t60.5 -41t41.5 -63t15.5 -81.5v-325q0 -43 -24 -66.5t-61 -23.5q-35 0 -50 20h-5q-20 -20 -50 -20 q-38 0 -61.5 24t-23.5 66v120q0 41 23.5 65.5t61.5 24.5h10q10 0 10 10v75q0 11 -6 18t-14 7t-14 -7t-6 -18v-34q0 -9 -6 -15t-15 -6h-23q-9 0 -15 6t-6 15v34q0 41 23.5 65.5t61.5 24.5t61.5 -21t23.5 -64v-300q0 -11 6 -18t14 -7t14 7t6 18v325q0 28 -9 52.5t-25.5 43 t-39.5 29t-51 10.5q-27 0 -50 -10.5t-39.5 -28.5t-26 -42.5t-9.5 -53.5v-355q0 -29 9.5 -54t26.5 -43t39.5 -28t49.5 -10h64q9 0 15 -6t6 -15v-23q0 -9 -6 -15t-15 -6h-64q-38 0 -72.5 14.5t-60.5 41t-41.5 63.5t-15.5 81z" />
<glyph unicode="A" horiz-adv-x="255" d="M93 141l-11 -122q-2 -19 -21 -19h-33q-10 0 -15.5 7t-5.5 16l71 658q2 19 21 19h57q19 0 21 -19l71 -658q0 -9 -5.5 -16t-15.5 -7h-33q-19 0 -21 19l-11 122q-2 19 -21 19h-27q-19 0 -21 -19zM153 253l-23 287h-5l-23 -287q0 -10 5 -16.5t16 -6.5h9q11 0 16 6.5t5 16.5z " />
<glyph unicode="B" horiz-adv-x="280" d="M245 585v-155q0 -20 -5 -33.5t-12 -22t-14.5 -13t-13.5 -6.5v-5q20 -6 37.5 -25.5t17.5 -54.5v-155q0 -54 -30.5 -84.5t-79.5 -30.5h-89q-9 0 -15 6t-6 15v658q0 9 6 15t15 6h79q49 0 79.5 -30.5t30.5 -84.5zM145 315h-20q-8 0 -14 -6t-6 -14v-205q0 -8 6 -14t14 -6h20 q40 0 40 45v155q0 45 -40 45zM175 430v155q0 45 -40 45h-15q-15 0 -15 -15v-215q0 -15 15 -15h15q40 0 40 45z" />
<glyph unicode="C" horiz-adv-x="280" d="M206 260h28q9 0 15 -6t6 -15v-139q0 -54 -30.5 -84.5t-79.5 -30.5q-51 0 -80.5 32t-29.5 83v500q0 51 29.5 83t80.5 32q49 0 79.5 -30.5t30.5 -84.5v-129q0 -9 -6 -15t-15 -6h-28q-9 0 -15 6t-6 15v129q0 45 -40 45t-40 -45v-500q0 -45 40 -45t40 45v139q0 9 6 15t15 6z " />
<glyph unicode="D" horiz-adv-x="290" d="M255 585v-470q0 -54 -30.5 -84.5t-79.5 -30.5h-89q-9 0 -15 6t-6 15v658q0 9 6 15t15 6h89q49 0 79.5 -30.5t30.5 -84.5zM185 115v470q0 45 -40 45h-20q-8 0 -14 -6t-6 -14v-520q0 -8 6 -14t14 -6h20q40 0 40 45z" />
<glyph unicode="E" horiz-adv-x="235" d="M105 609v-203q0 -9 6 -15t15 -6h48q9 0 15 -6t6 -15v-28q0 -9 -6 -15t-15 -6h-48q-9 0 -15 -6t-6 -15v-203q0 -9 6 -15t15 -6h78q9 0 15 -6t6 -15v-28q0 -9 -6 -15t-15 -6h-148q-9 0 -15 6t-6 15v658q0 9 6 15t15 6h148q9 0 15 -6t6 -15v-28q0 -9 -6 -15t-15 -6h-78 q-9 0 -15 -6t-6 -15z" />
<glyph unicode="F" horiz-adv-x="235" d="M105 609v-223q0 -9 6 -15t15 -6h58q9 0 15 -6t6 -15v-28q0 -9 -6 -15t-15 -6h-58q-9 0 -15 -6t-6 -15v-253q0 -9 -6 -15t-15 -6h-28q-9 0 -15 6t-6 15v658q0 9 6 15t15 6h158q9 0 15 -6t6 -15v-28q0 -9 -6 -15t-15 -6h-88q-9 0 -15 -6t-6 -15z" />
<glyph unicode="G" horiz-adv-x="290" d="M135 326v28q0 9 6 15t15 6h78q9 0 15 -6t6 -15v-254q0 -54 -30.5 -84.5t-79.5 -30.5q-51 0 -80.5 32t-29.5 83v500q0 51 29.5 83t80.5 32q49 0 79.5 -30.5t30.5 -84.5v-129q0 -9 -6 -15t-15 -6h-28q-9 0 -15 6t-6 15v129q0 45 -40 45t-40 -45v-500q0 -45 40 -45t40 45 v184q0 9 -6 15t-15 6h-8q-9 0 -15 6t-6 15z" />
<glyph unicode="H" horiz-adv-x="290" d="M105 294v-273q0 -9 -6 -15t-15 -6h-28q-9 0 -15 6t-6 15v658q0 9 6 15t15 6h28q9 0 15 -6t6 -15v-273q0 -9 6 -15t15 -6h38q9 0 15 6t6 15v273q0 9 6 15t15 6h28q9 0 15 -6t6 -15v-658q0 -9 -6 -15t-15 -6h-28q-9 0 -15 6t-6 15v273q0 9 -6 15t-15 6h-38q-9 0 -15 -6 t-6 -15z" />
<glyph unicode="I" horiz-adv-x="140" d="M105 679v-658q0 -9 -6 -15t-15 -6h-28q-9 0 -15 6t-6 15v658q0 9 6 15t15 6h28q9 0 15 -6t6 -15z" />
<glyph unicode="J" horiz-adv-x="150" d="M61 700h28q9 0 15 -6t6 -15v-724q0 -54 -30.5 -84.5t-79.5 -30.5h-10q-10 0 -10 10v50q0 10 10 10h10q40 0 40 45v724q0 9 6 15t15 6z" />
<glyph unicode="K" horiz-adv-x="270" d="M192 17l-54 288q-3 15 -18 15t-15 -15v-284q0 -9 -6 -15t-15 -6h-28q-9 0 -15 6t-6 15v658q0 9 6 15t15 6h28q9 0 15 -6t6 -15v-274q0 -15 15 -15t18 15l49 278q1 7 7 12t14 5h27q11 0 16 -7.5t5 -17.5l-55 -316q-1 -2 -1 -4q0 -3 1 -4l59 -326v-5q0 -8 -6 -14t-14 -6 h-28q-7 0 -13 5t-7 12z" />
<glyph unicode="L" horiz-adv-x="220" d="M105 679v-588q0 -9 6 -15t15 -6h68q9 0 15 -6t6 -15v-28q0 -9 -6 -15t-15 -6h-138q-9 0 -15 6t-6 15v658q0 9 6 15t15 6h28q9 0 15 -6t6 -15z" />
<glyph unicode="M" horiz-adv-x="395" d="M162 148l-52 312h-5l-14 -440q-1 -8 -7 -14t-14 -6h-28q-9 0 -15 6.5t-6 15.5l28 658q0 8 6.5 14t14.5 6h52q7 0 13.5 -5.5t7.5 -12.5l52 -362h5l52 362q1 7 7.5 12.5t13.5 5.5h52q8 0 14.5 -6t6.5 -14l28 -658q0 -9 -6 -15.5t-15 -6.5h-28q-8 0 -14 6t-7 14l-14 440h-5 l-52 -312q-2 -18 -21 -18h-29q-19 0 -21 18z" />
<glyph unicode="N" horiz-adv-x="290" d="M110 380h-5v-359q0 -9 -6 -15t-15 -6h-28q-9 0 -15 6t-6 15v658q0 9 6 15t15 6h32q7 0 13 -5t7 -12l72 -363h5v359q0 9 6 15t15 6h28q9 0 15 -6t6 -15v-658q0 -9 -6 -15t-15 -6h-32q-7 0 -13 5t-7 12z" />
<glyph unicode="O" horiz-adv-x="290" d="M145 55q40 0 40 45v500q0 45 -40 45t-40 -45v-500q0 -45 40 -45zM145 715q49 0 79.5 -30.5t30.5 -84.5v-500q0 -54 -30.5 -84.5t-79.5 -30.5q-51 0 -80.5 32t-29.5 83v500q0 51 29.5 83t80.5 32z" />
<glyph unicode="P" horiz-adv-x="280" d="M255 585v-260q0 -54 -30.5 -84.5t-79.5 -30.5h-20q-8 0 -14 -6t-6 -14v-169q0 -9 -6 -15t-15 -6h-28q-9 0 -15 6t-6 15v658q0 9 6 15t15 6h89q49 0 79.5 -30.5t30.5 -84.5zM185 325v260q0 45 -40 45h-20q-8 0 -14 -6t-6 -14v-310q0 -8 6 -14t14 -6h20q40 0 40 45z" />
<glyph unicode="Q" horiz-adv-x="295" d="M145 715q49 0 79.5 -30.5t30.5 -84.5v-501q-2 -31 -12 -52q-1 -2 -1 -5q0 -4 4 -8q17 -19 36 -19h6q7 0 7 -7v-51q0 -7 -7 -7h-8q-55 0 -82 39q-3 6 -10 4q-11 -5 -21.5 -6t-21.5 -2q-51 0 -80.5 32t-29.5 83v500q0 51 29.5 83t80.5 32zM145 55q40 0 40 45v500 q0 45 -40 45t-40 -45v-500q0 -45 40 -45z" />
<glyph unicode="R" horiz-adv-x="280" d="M255 585v-210q0 -60 -40 -91q-5 -4 -4 -11l49 -248v-5q0 -8 -5.5 -14t-15.5 -6h-31q-8 0 -14 5t-7 12l-39 226q-1 7 -7 12t-14 5h-2q-8 0 -14 -6t-6 -14v-219q0 -9 -6 -15t-15 -6h-28q-9 0 -15 6t-6 15v658q0 9 6 15t15 6h89q49 0 79.5 -30.5t30.5 -84.5zM185 375v210 q0 45 -40 45h-20q-8 0 -14 -6t-6 -14v-260q0 -8 6 -14t14 -6h20q40 0 40 45z" />
<glyph unicode="S" horiz-adv-x="260" d="M90 600q0 -63 17 -113.5t40 -97t46.5 -92t35.5 -97.5q11 -47 11 -100q0 -54 -30.5 -84.5t-79.5 -30.5q-51 0 -80.5 32t-29.5 83v119q0 9 6 15t15 6h28q9 0 15 -6t6 -15v-119q0 -45 40 -45t40 45q0 61 -16.5 108.5t-39 92t-46 92t-37.5 108.5q-11 46 -11 99q0 51 29.5 83 t80.5 32q49 0 79.5 -30.5t30.5 -84.5v-89q0 -9 -6 -15t-15 -6h-28q-9 0 -15 6t-6 15v89q0 45 -40 45t-40 -45z" />
<glyph unicode="T" d="M10 651v28q0 9 6 15t15 6h168q9 0 15 -6t6 -15v-28q0 -9 -6 -15t-15 -6h-28q-9 0 -15 -6t-6 -15v-588q0 -9 -6 -15t-15 -6h-28q-9 0 -15 6t-6 15v588q0 9 -6 15t-15 6h-28q-9 0 -15 6t-6 15z" />
<glyph unicode="U" horiz-adv-x="290" d="M206 700h28q9 0 15 -6t6 -15v-579q0 -54 -30.5 -84.5t-79.5 -30.5q-51 0 -80.5 32t-29.5 83v579q0 9 6 15t15 6h28q9 0 15 -6t6 -15v-579q0 -45 40 -45t40 45v579q0 9 6 15t15 6z" />
<glyph unicode="V" horiz-adv-x="265" d="M161 0h-57q-19 0 -21 19l-71 658q0 9 5.5 16t15.5 7h28q19 0 21 -19l48 -501h5l48 501q2 19 21 19h28q10 0 15.5 -7t5.5 -16l-71 -658q-2 -19 -21 -19z" />
<glyph unicode="W" horiz-adv-x="415" d="M253 19l-43 431h-5l-43 -431q-2 -19 -21 -19h-37q-19 0 -21 19l-71 658q0 9 5.5 16t15.5 7h33q19 0 21 -19l38 -441h5l38 441q2 19 21 19h37q19 0 21 -19l38 -441h5l38 441q2 19 21 19h33q10 0 15.5 -7t5.5 -16l-71 -658q-2 -19 -21 -19h-37q-19 0 -21 19z" />
<glyph unicode="X" horiz-adv-x="265" d="M130 280l-47 -263q-1 -7 -7 -12t-14 -5h-32q-10 0 -16 7.5t-4 17.5l65 335l-60 315q-2 10 4 17.5t16 7.5h32q8 0 14 -5t7 -12l42 -243h5l42 243q1 7 7 12t14 5h32q10 0 16 -7.5t4 -17.5l-60 -315l65 -335q2 -10 -4 -17.5t-16 -7.5h-32q-8 0 -14 5t-7 12l-47 263h-5z" />
<glyph unicode="Y" horiz-adv-x="260" d="M165 217v-196q0 -9 -6 -15t-15 -6h-28q-9 0 -15 6t-6 15v196l-85 458q-2 10 4 17.5t16 7.5h32q7 0 13.5 -5.5t7.5 -12.5l44 -299q0 -3 3 -3t3 3l44 299q1 7 7.5 12.5t13.5 5.5h32q10 0 16 -7.5t4 -17.5z" />
<glyph unicode="Z" horiz-adv-x="220" d="M114 630h-83q-9 0 -15 6t-6 15v28q0 9 6 15t15 6h158q9 0 15 -6t6 -15v-49l-125 -534q-2 -11 4 -18.5t16 -7.5h84q9 0 15 -6t6 -15v-28q0 -9 -6 -15t-15 -6h-158q-9 0 -15 6t-6 15v49l124 534q2 11 -4 18.5t-16 7.5z" />
<glyph unicode="[" horiz-adv-x="195" d="M136 -75h38q9 0 15 -6t6 -15v-28q0 -9 -6 -15t-15 -6h-108q-9 0 -15 6t-6 15v858q0 9 6 15t15 6h108q9 0 15 -6t6 -15v-28q0 -9 -6 -15t-15 -6h-38q-9 0 -15 -6t-6 -15v-718q0 -9 6 -15t15 -6z" />
<glyph unicode="\" horiz-adv-x="295" d="M75 685l211 -658q1 -3 1 -7q0 -8 -5.5 -14t-15.5 -6h-26q-6 0 -12 4.5t-8 10.5l-211 658q-2 4 -2 7q0 8 6 14t16 6h26q6 0 12 -4.5t8 -10.5z" />
<glyph unicode="]" horiz-adv-x="195" d="M21 -75h38q9 0 15 6t6 15v718q0 9 -6 15t-15 6h-38q-9 0 -15 6t-6 15v28q0 9 6 15t15 6h108q9 0 15 -6t6 -15v-858q0 -9 -6 -15t-15 -6h-108q-9 0 -15 6t-6 15v28q0 9 6 15t15 6z" />
<glyph unicode="^" horiz-adv-x="255" d="M175 484l-45 136h-5l-45 -136q-2 -5 -8 -9.5t-12 -4.5h-15q-22 0 -22 20q0 2 2 8l65 188q2 5 8 9.5t12 4.5h35q6 0 12 -4.5t8 -9.5l65 -188q1 -3 1 -8q0 -20 -21 -20h-15q-6 0 -12 4.5t-8 9.5z" />
<glyph unicode="_" horiz-adv-x="220" d="M5 -119v23q0 9 6 15t15 6h168q9 0 15 -6t6 -15v-23q0 -9 -6 -15t-15 -6h-168q-9 0 -15 6t-6 15z" />
<glyph unicode="`" horiz-adv-x="145" d="M84 581l-52 89q-3 6 -3 11q0 8 5.5 13.5t15.5 5.5h20q6 0 12 -4.5t8 -9.5l33 -97q1 -2 1 -7q0 -12 -14 -12h-8q-4 0 -10 3.5t-8 7.5z" />
<glyph unicode="a" horiz-adv-x="225" d="M110 320h13q12 0 12 13v122q0 35 -25 35q-8 0 -14 -7.5t-6 -27.5v-59q0 -9 -6 -15t-15 -6h-23q-9 0 -15 6t-6 15v59q0 49 23.5 74.5t61.5 25.5q42 0 66 -25t24 -75v-434q0 -9 -6 -15t-15 -6h-29q-10 0 -10 10v10h-5q-15 -35 -45 -35q-26 0 -48 25.5t-22 74.5v135 q0 49 24 74.5t66 25.5zM123 255h-13q-25 0 -25 -35v-135q0 -35 20 -35q10 0 20 12.5t10 22.5v158q0 12 -12 12z" />
<glyph unicode="b" horiz-adv-x="235" d="M210 455v-370q0 -49 -24 -74.5t-66 -25.5t-66 25.5t-24 74.5v604q0 9 6 15t15 6h23q9 0 15 -6t6 -15v-159h5q20 25 40 25q25 0 47.5 -25t22.5 -75zM145 85v370q0 35 -20 35t-30 -35v-370q0 -35 25 -35t25 35z" />
<glyph unicode="c" d="M161 209h23q9 0 15 -6t6 -15v-104q0 -49 -24 -74.5t-66 -25.5t-66 25.5t-24 74.5v370q0 50 23.5 75t66.5 25q42 0 66 -25t24 -75v-94q0 -9 -6 -15t-15 -6h-23q-9 0 -15 6t-6 15v94q0 35 -25 35t-25 -35v-370q0 -35 25 -35t25 35v104q0 9 6 15t15 6z" />
<glyph unicode="d" horiz-adv-x="235" d="M25 85v370q0 50 22 75t48 25q20 0 40 -25h5v159q0 9 6 15t15 6h23q9 0 15 -6t6 -15v-668q0 -9 -6 -15t-15 -6h-29q-10 0 -10 10v10h-5q-15 -35 -45 -35q-25 0 -47.5 25.5t-22.5 74.5zM90 455v-370q0 -35 20 -35t30 35v370q-10 35 -30 35t-20 -35z" />
<glyph unicode="e" d="M161 200h23q9 0 15 -6t6 -15v-94q0 -49 -24 -74.5t-66 -25.5t-66 25.5t-24 74.5v370q0 50 23.5 75t66.5 25q42 0 66 -25t24 -75v-184q0 -9 -6 -15t-15 -6h-73q-9 0 -15 -6t-6 -15v-144q0 -35 25 -35t25 35v94q0 9 6 15t15 6zM90 455v-119q0 -9 6 -15t15 -6h8q9 0 15 6 t6 15v119q0 35 -25 35t-25 -35z" />
<glyph unicode="f" horiz-adv-x="170" d="M0 495v25q0 20 20 20t20 20v50q0 50 25 75t70 25h18q7 0 12 -5t5 -12v-30q0 -8 -5 -13t-12 -5h-18q-30 0 -30 -35v-49q0 -9 6 -15t15 -6h23q9 0 15 -6t6 -15v-23q0 -9 -6 -15t-15 -6h-23q-9 0 -15 -6t-6 -15v-433q0 -9 -6 -15t-15 -6h-23q-9 0 -15 6t-6 15v434 q0 20 -20 20t-20 20z" />
<glyph unicode="g" horiz-adv-x="235" d="M25 455q0 49 22.5 74.5t47.5 25.5q30 0 45 -35h5v10q0 10 10 10h29q9 0 15 -6t6 -15v-609q0 -50 -24 -75t-66 -25q-43 0 -66.5 25t-23.5 75v49q0 9 6 15t15 6h23q9 0 15 -6t6 -15v-49q0 -35 25 -35t25 35v140h-5q-20 -25 -40 -25q-26 0 -48 25t-22 75v330zM90 125 q0 -35 20 -35t30 35v330q-10 35 -30 35t-20 -35v-330z" />
<glyph unicode="h" horiz-adv-x="235" d="M189 0h-23q-9 0 -15 6t-6 15v434q0 19 -4.5 27t-15.5 8q-20 0 -30 -35v-434q0 -9 -6 -15t-15 -6h-23q-9 0 -15 6t-6 15v668q0 9 6 15t15 6h23q9 0 15 -6t6 -15v-159h5q20 25 40 25q25 0 47.5 -25t22.5 -75v-434q0 -9 -6 -15t-15 -6z" />
<glyph unicode="i" horiz-adv-x="125" d="M74 0h-23q-9 0 -15 6t-6 15v498q0 9 6 15t15 6h23q9 0 15 -6t6 -15v-498q0 -9 -6 -15t-15 -6zM20 667q0 17 13 30t30 13t29.5 -13t12.5 -30q0 -18 -13.5 -30t-28.5 -12q-16 0 -29.5 12.5t-13.5 29.5z" />
<glyph unicode="j" horiz-adv-x="125" d="M-20 -170v45q0 10 10 10h10q30 0 30 35v599q0 9 6 15t15 6h23q9 0 15 -6t6 -15v-599q0 -50 -25 -75t-70 -25h-10q-10 0 -10 10zM20 667q0 17 13 30t30 13t29.5 -13t12.5 -30q0 -18 -13.5 -30t-28.5 -12q-16 0 -29.5 12.5t-13.5 29.5z" />
<glyph unicode="k" d="M200 0h-22q-19 0 -21 18l-35 210q-2 12 -14 12q-13 0 -13 -12v-207q0 -9 -6 -15t-15 -6h-23q-9 0 -15 6t-6 15v668q0 9 6 15t15 6h23q9 0 15 -6t6 -15v-366q0 -13 13 -13q12 0 14 12l31 201q1 7 7 12t13 5h22q8 0 14.5 -5.5t6.5 -14.5v-5l-40 -236q-1 -2 -1 -4q0 -3 1 -4 l44 -246v-5q0 -8 -6 -14t-14 -6z" />
<glyph unicode="l" horiz-adv-x="125" d="M51 710h23q9 0 15 -6t6 -15v-668q0 -9 -6 -15t-15 -6h-23q-9 0 -15 6t-6 15v668q0 9 6 15t15 6z" />
<glyph unicode="m" horiz-adv-x="345" d="M299 0h-23q-9 0 -15 6t-6 15v434q0 35 -20 35t-30 -35v-434q0 -9 -6 -15t-15 -6h-23q-9 0 -15 6t-6 15v434q0 35 -20 35t-30 -35v-434q0 -9 -6 -15t-15 -6h-23q-9 0 -15 6t-6 15v498q0 9 6 15t15 6h29q10 0 10 -10v-10h5q20 35 45 35t39.5 -14t20.5 -31h5q5 16 17.5 30.5 t32.5 14.5q25 0 47.5 -25t22.5 -75v-434q0 -9 -6 -15t-15 -6z" />
<glyph unicode="n" d="M184 0h-23q-9 0 -15 6t-6 15v434q0 35 -20 35t-30 -35v-434q0 -9 -6 -15t-15 -6h-23q-9 0 -15 6t-6 15v498q0 9 6 15t15 6h29q10 0 10 -10v-10h5q20 35 45 35t47.5 -25t22.5 -75v-434q0 -9 -6 -15t-15 -6z" />
<glyph unicode="o" d="M25 85v370q0 50 23.5 75t66.5 25q42 0 66 -25t24 -75v-370q0 -49 -24 -74.5t-66 -25.5t-66 25.5t-24 74.5zM90 455v-370q0 -35 25 -35t25 35v370q0 35 -25 35t-25 -35z" />
<glyph unicode="p" d="M205 85q0 -50 -22 -75t-48 -25q-20 0 -40 25h-5v-169q0 -9 -6 -15t-15 -6h-23q-9 0 -15 6t-6 15v678q0 9 6 15t15 6h29q10 0 10 -10v-10h5q15 35 45 35q25 0 47.5 -25.5t22.5 -74.5v-370zM140 455q0 35 -20 35t-30 -35v-370q10 -35 30 -35t20 35v370z" />
<glyph unicode="q" d="M25 455q0 49 24 74.5t66 25.5t66 -25.5t24 -74.5v-614q0 -9 -6 -15t-15 -6h-23q-9 0 -15 6t-6 15v169h-5q-20 -25 -40 -25q-25 0 -47.5 25t-22.5 75v370zM90 85q0 -35 20 -35t30 35v370q0 35 -25 35t-25 -35v-370z" />
<glyph unicode="r" horiz-adv-x="165" d="M165 545v-45q0 -10 -10 -10h-10q-40 0 -55 -45v-424q0 -9 -6 -15t-15 -6h-23q-9 0 -15 6t-6 15v498q0 9 6 15t15 6h27q12 0 12 -12v-13h5q20 40 55 40h10q10 0 10 -10z" />
<glyph unicode="s" horiz-adv-x="210" d="M130 85q0 39 -8.5 69.5t-21.5 57.5t-27.5 52.5t-27.5 53.5t-21.5 61t-8.5 76q0 50 23.5 75t66.5 25q42 0 66 -25t24 -75v-69q0 -9 -6 -15t-15 -6h-23q-9 0 -15 6t-6 15v69q0 35 -25 35t-25 -35q0 -59 18 -99t40 -78q22 -39 39.5 -83t17.5 -110q0 -49 -24 -74.5t-66 -25.5 t-66 25.5t-24 74.5v84q0 9 6 15t15 6h23q9 0 15 -6t6 -15v-84q0 -35 25 -35t25 35z" />
<glyph unicode="t" horiz-adv-x="185" d="M5 495v25q0 8 6 14t14 6h3q7 0 13 5t8 11l17 78q2 6 8 11t13 5h3q8 0 14 -6t6 -14v-69q0 -9 6 -15t15 -6h23q9 0 15 -6t6 -15v-23q0 -9 -6 -15t-15 -6h-23q-9 0 -15 -6t-6 -15v-354q0 -35 30 -35h18q7 0 12 -5t5 -12v-30q0 -8 -5 -13t-12 -5h-18q-45 0 -70 25.5t-25 74.5 v355q0 20 -20 20t-20 20z" />
<glyph unicode="u" d="M69 540q9 0 15 -6t6 -15v-434q0 -35 20 -35t30 35v434q0 9 6 15t15 6h23q9 0 15 -6t6 -15v-498q0 -9 -6 -15t-15 -6h-29q-10 0 -10 10v10h-5q-20 -35 -45 -35t-47.5 25t-22.5 75v434q0 9 6 15t15 6h23z" />
<glyph unicode="v" horiz-adv-x="235" d="M73 18l-60 498q-1 10 4.5 17t16.5 7h27q19 0 21 -19l33 -381h5l33 381q2 19 21 19h27q10 0 16 -7t5 -17l-60 -498q-1 -7 -7 -12.5t-14 -5.5h-47q-8 0 -14 5.5t-7 12.5z" />
<glyph unicode="w" horiz-adv-x="365" d="M217 521l28 -326h5l28 326q2 19 21 19h32q10 0 16 -7t5 -17l-60 -498q-1 -7 -7 -12.5t-14 -5.5h-32q-19 0 -21 19l-33 291h-5l-33 -291q-2 -19 -21 -19h-32q-8 0 -14 5.5t-7 12.5l-60 498q-1 10 5 17t16 7h32q19 0 21 -19l28 -326h5l28 326q2 19 21 19h27q19 0 21 -19z " />
<glyph unicode="x" horiz-adv-x="225" d="M110 224l-32 -206q-1 -8 -7.5 -13t-13.5 -5h-27q-9 0 -15 6t-6 14q0 2 0.5 2.5t0.5 2.5l50 260l-41 230q0 10 5 17.5t16 7.5h27q7 0 13 -5.5t7 -12.5l23 -177h5l23 177q1 7 7 12.5t13 5.5h27q11 0 16 -7.5t5 -17.5l-41 -230l50 -260v-5q0 -8 -6 -14t-14 -6h-27 q-7 0 -13.5 5t-7.5 13l-32 206h-5z" />
<glyph unicode="y" horiz-adv-x="220" d="M97 -180h-23q-10 0 -16 7t-5 17l22 156l-67 516q-1 10 5 17t16 7h27q19 0 21 -19l28 -346h5l38 346q2 19 21 19h22q10 0 16 -7t5 -17l-94 -678q-2 -7 -8 -12.5t-13 -5.5z" />
<glyph unicode="z" horiz-adv-x="195" d="M93 475h-62q-9 0 -15 6t-6 15v23q0 9 6 15t15 6h133q9 0 15 -6t6 -15v-41q0 -4 -1 -6l-102 -381q-3 -10 3 -18t17 -8h62q9 0 15 -6t6 -15v-23q0 -9 -6 -15t-15 -6h-133q-9 0 -15 6t-6 15v49l103 379q1 2 1 6q0 8 -6 14t-15 6z" />
<glyph unicode="{" horiz-adv-x="220" d="M70 -30v255q0 45 -40 45h-7q-8 0 -8 8v55q0 7 8 7h7q40 0 40 45v255q0 51 29.5 83t80.5 32h20q8 0 14 -6t6 -14v-30q0 -8 -6 -14t-14 -6h-20q-40 0 -40 -45v-255q0 -55 -45 -74q-5 -1 -5 -6t5 -6q45 -19 45 -74v-255q0 -45 40 -45h20q8 0 14 -6t6 -14v-30q0 -8 -6 -14 t-14 -6h-20q-51 0 -80.5 32t-29.5 83z" />
<glyph unicode="|" horiz-adv-x="150" d="M110 779v-858q0 -9 -6 -15t-15 -6h-28q-9 0 -15 6t-6 15v858q0 9 6 15t15 6h28q9 0 15 -6t6 -15z" />
<glyph unicode="}" horiz-adv-x="220" d="M150 -30q0 -51 -29.5 -83t-80.5 -32h-20q-8 0 -14 6t-6 14v30q0 8 6 14t14 6h20q40 0 40 45v255q0 55 45 74q5 1 5 6t-5 6q-45 19 -45 74v255q0 45 -40 45h-20q-8 0 -14 6t-6 14v30q0 8 6 14t14 6h20q51 0 80.5 -32t29.5 -83v-255q0 -45 40 -45h7q8 0 8 -7v-55 q0 -8 -8 -8h-7q-40 0 -40 -45v-255z" />
<glyph unicode="~" horiz-adv-x="260" d="M95 325q-15 0 -15 -20v-12q0 -13 -12 -13h-27q-9 0 -15 6t-6 15v29q0 29 16.5 47t43.5 18q22 0 35 -7.5t21 -17.5l14 -17q6 -8 15 -8q15 0 15 20v13q0 12 13 12h26q9 0 15 -6t6 -15v-29q0 -31 -17.5 -48t-42.5 -17q-22 0 -35 8t-21 17l-14 17q-6 8 -15 8z" />
<glyph unicode="&#xa1;" horiz-adv-x="140" d="M65 385h10q8 0 14.5 -6t6.5 -14l9 -175v-349q0 -9 -6 -15t-15 -6h-28q-9 0 -15 6t-6 15v349l9 175q0 8 6.5 14t14.5 6zM30 510q0 40 40 40t40 -40t-40 -40t-40 40z" />
<glyph unicode="&#xa2;" d="M124 -90h-23q-9 0 -15 6t-6 15v48q0 10 -8.5 15.5t-19 15t-19 26.5t-8.5 49v370q0 36 11 54t32 33q3 2 7.5 9t4.5 11v47q0 9 6 15t15 6h23q9 0 15 -6t6 -15v-45q0 -12 9.5 -19t20.5 -17t20.5 -26t9.5 -47v-94q0 -9 -6 -15t-15 -6h-23q-9 0 -15 6t-6 15v94q0 35 -25 35 t-25 -35v-370q0 -35 25 -35t25 35v104q0 9 6 15t15 6h23q9 0 15 -6t6 -15v-104q0 -42 -13.5 -61t-33.5 -30q-4 -2 -8.5 -8t-4.5 -11v-44q0 -9 -6 -15t-15 -6z" />
<glyph unicode="&#xa3;" horiz-adv-x="255" d="M15 600q0 51 29.5 83t80.5 32q49 0 79.5 -30.5t30.5 -84.5v-109q0 -9 -6 -15t-15 -6h-28q-9 0 -15 6t-6 15v109q0 45 -40 45t-40 -45q-1 -57 11.5 -104t26.5 -85l26 -69q3 -9 5 -18.5t4 -17t4.5 -12t8.5 -4.5h23q9 0 15 -6t6 -15v-28q0 -9 -6 -15t-15 -6h-19q-8 0 -12 -6 t-6 -15t-3.5 -19t-4.5 -17q-10 -25 -21.5 -45t-28.5 -38q-1 -1 -1 -4q0 -6 7 -6h104q9 0 15 -6t6 -15v-28q0 -9 -6 -15t-15 -6h-178q-9 0 -15 6t-6 15v40q0 11 15 26t25 28q14 18 26.5 43t12.5 50q0 12 -14 12h-29q-9 0 -15 6t-6 15v28q0 9 6 15t15 6h35q8 0 8 6 q0 8 -2.5 19t-7.5 23l-26 70q-14 38 -26.5 87t-11.5 105z" />
<glyph unicode="&#xa4;" horiz-adv-x="295" d="M270 585v-210q0 -54 -30.5 -84.5t-79.5 -30.5h-20q-8 0 -14 -6t-6 -14t6 -14t14 -6h59q9 0 15 -6t6 -15v-28q0 -9 -6 -15t-15 -6h-58q-9 0 -15 -6t-6 -15v-108q0 -9 -6 -15t-15 -6h-28q-9 0 -15 6t-6 15v108q0 9 -6 15t-15 6h-3q-9 0 -15 6t-6 15v28q0 9 6 15t15 6h4 q8 0 14 6t6 14t-6 14t-14 6h-4q-9 0 -15 6t-6 15v28q0 9 6 15t15 6h3q9 0 15 6t6 15v328q0 9 6 15t15 6h89q49 0 79.5 -30.5t30.5 -84.5zM200 375v210q0 45 -40 45h-20q-8 0 -14 -6t-6 -14v-260q0 -8 6 -14t14 -6h20q40 0 40 45z" />
<glyph unicode="&#xa5;" horiz-adv-x="260" d="M209 210h-29q-15 0 -15 -15t15 -15h29q9 0 15 -6t6 -15v-28q0 -9 -6 -15t-15 -6h-23q-9 0 -15 -6t-6 -15v-68q0 -9 -6 -15t-15 -6h-28q-9 0 -15 6t-6 15v68q0 9 -6 15t-15 6h-23q-9 0 -15 6t-6 15v28q0 9 6 15t15 6h29q15 0 15 15t-15 15h-29q-9 0 -15 6t-6 15v28 q0 9 6 15t15 6h9q8 0 14 6t6 14v5l-70 370q0 1 -0.5 2t-0.5 3q0 8 6 14t15 6h32q7 0 13.5 -5.5t7.5 -12.5l44 -299q0 -3 3 -3t3 3l44 299q1 7 7.5 12.5t13.5 5.5h32q8 0 14 -6t6 -14v-5l-70 -370q0 -2 -0.5 -2.5t-0.5 -2.5q0 -8 6 -14t15 -6h9q9 0 15 -6t6 -15v-28 q0 -9 -6 -15t-15 -6z" />
<glyph unicode="&#xa6;" horiz-adv-x="150" d="M61 800h28q9 0 15 -6t6 -15v-338q0 -9 -6 -15t-15 -6h-28q-9 0 -15 6t-6 15v338q0 9 6 15t15 6zM61 280h28q9 0 15 -6t6 -15v-338q0 -9 -6 -15t-15 -6h-28q-9 0 -15 6t-6 15v338q0 9 6 15t15 6z" />
<glyph unicode="&#xa7;" horiz-adv-x="250" d="M30 325q0 49 23.5 74.5t61.5 25.5v5q-16 17 -31.5 37.5t-27.5 42t-19 43.5t-7 42q0 54 25 79.5t70 25.5t70 -25.5t25 -79.5v-54q0 -9 -6 -15t-15 -6h-23q-9 0 -15 6t-6 15v54q0 22 -6.5 31t-23.5 9q-16 0 -23 -9t-7 -31q0 -32 19.5 -61.5t43 -61.5t43 -67.5t19.5 -79.5 v-120q0 -51 -24 -75.5t-61 -24.5v-5q15 -16 30 -36t27.5 -43t20 -47.5t7.5 -48.5q0 -54 -25 -79.5t-70 -25.5t-70 25.5t-25 79.5v64q0 9 6 15t15 6h23q9 0 15 -6t6 -15v-64q0 -22 7 -31t23 -9q17 0 23.5 8.5t6.5 31.5q0 39 -19.5 71.5t-43 64.5t-43 67t-19.5 77v120zM95 325 v-120q0 -35 30 -35t30 35v120q0 35 -30 35t-30 -35z" />
<glyph unicode="&#xa8;" horiz-adv-x="250" d="M105 650q0 -40 -40 -40t-40 40t40 40t40 -40zM225 650q0 -40 -40 -40t-40 40t40 40t40 -40z" />
<glyph unicode="&#xa9;" horiz-adv-x="740" d="M30 345q0 76 26 142.5t72 116t108 78t134 28.5q69 0 130.5 -27t108 -76t74 -116t27.5 -146q0 -80 -27.5 -147t-74.5 -115.5t-108.5 -75.5t-129.5 -27t-130 27t-108.5 76t-74 115.5t-27.5 146.5zM85 345q0 -69 23.5 -126t62.5 -98t90.5 -63.5t108.5 -22.5t108.5 22.5 t91 63.5t62.5 98t23 126q0 63 -21 119.5t-58.5 98.5t-90 67t-115.5 25q-57 0 -109 -23t-91 -64t-62 -98t-23 -125zM411 300h13q9 0 15 -6t6 -15v-89q0 -38 -20.5 -59t-54.5 -21q-35 0 -55 21.5t-20 58.5v300q0 36 20 58t55 22q34 0 54.5 -21t20.5 -59v-89q0 -9 -6 -15 t-15 -6h-13q-9 0 -15 6t-6 15v89q0 11 -6 18t-14 7t-14 -7t-6 -18v-300q0 -11 6 -18t14 -7t14 7t6 18v89q0 9 6 15t15 6z" />
<glyph unicode="&#xaa;" horiz-adv-x="205" d="M125 353v7h-5l-8 -10q-7 -10 -27 -10q-23 0 -41.5 21.5t-18.5 58.5v55q0 38 21 59t56 21h12q11 0 11 12v68q0 11 -6 18t-14 7t-14 -7t-6 -18v-24q0 -9 -6 -15t-15 -6h-13q-9 0 -15 6t-6 15v24q0 33 20 54t55 21t55 -20t20 -55v-269q0 -9 -6 -15t-15 -6h-26q-8 0 -8 8z M98 395l8 2q1 0 4 1.5t4 1.5l5 4l3 3q3 3 3 8v73q0 12 -12 12h-13q-8 0 -14 -7t-6 -18v-55q0 -9 4.5 -16t13.5 -9z" />
<glyph unicode="&#xab;" horiz-adv-x="295" d="M123 140h-20q-5 0 -11 4t-8 8l-60 129q-1 2 -1 9t1 9l60 129q2 4 8 8t11 4h20q20 0 20 -19q0 -7 -2 -10l-52 -112q-1 -2 -1 -9t1 -9l52 -112q2 -4 2 -10q0 -19 -20 -19zM243 140h-20q-5 0 -11 4t-8 8l-60 129q-1 2 -1 9t1 9l60 129q2 4 8 8t11 4h20q20 0 20 -19 q0 -7 -2 -10l-52 -112q-1 -2 -1 -9t1 -9l52 -112q2 -4 2 -10q0 -19 -20 -19z" />
<glyph unicode="&#xac;" horiz-adv-x="265" d="M15 321v28q0 9 6 15t15 6h183q9 0 15 -6t6 -15v-73q0 -9 -6 -15t-15 -6h-23q-9 0 -15 6t-6 15v3q0 9 -6 15t-15 6h-118q-9 0 -15 6t-6 15z" />
<glyph unicode="&#xad;" horiz-adv-x="260" d="M219 290h-178q-9 0 -15 6t-6 15v23q0 9 6 15t15 6h178q9 0 15 -6t6 -15v-23q0 -9 -6 -15t-15 -6z" />
<glyph unicode="&#xae;" horiz-adv-x="740" d="M30 345q0 76 26 142.5t72 116t108 78t134 28.5q69 0 130.5 -27t108 -76t74 -116t27.5 -146q0 -80 -27.5 -147t-74.5 -115.5t-108.5 -75.5t-129.5 -27t-130 27t-108.5 76t-74 115.5t-27.5 146.5zM85 345q0 -69 23.5 -126t62.5 -98t90.5 -63.5t108.5 -22.5t108.5 22.5 t91 63.5t62.5 98t23 126q0 63 -21 119.5t-58.5 98.5t-90 67t-115.5 25q-57 0 -109 -23t-91 -64t-62 -98t-23 -125zM350 273v-137q0 -9 -6 -15t-15 -6h-13q-9 0 -15 6t-6 15v408q0 9 6 15t15 6h59q38 0 56.5 -23.5t18.5 -66.5v-100q0 -22 -4 -34l-7 -18q0 -1 -1.5 -4t-2.5 -3 l-3 -4q-3 -2 -4.5 -7.5t-1.5 -8.5l25 -157v-5q0 -19 -21 -19h-12q-7 0 -13.5 5.5t-7.5 12.5l-20 140q-2 12 -14 12q-13 0 -13 -12zM350 498v-145q0 -13 13 -13h12q8 0 14 7t6 18v120q0 11 -6 18t-14 7h-12q-13 0 -13 -12z" />
<glyph unicode="&#xaf;" d="M25 641v18q0 9 6 15t15 6h138q9 0 15 -6t6 -15v-18q0 -9 -6 -15t-15 -6h-138q-9 0 -15 6t-6 15z" />
<glyph unicode="&#xb0;" horiz-adv-x="240" d="M220 610q0 -42 -29 -71t-71 -29q-21 0 -39 8t-31.5 22t-21.5 32t-8 38q0 42 29 71t71 29q21 0 39 -8t31.5 -21.5t21.5 -31.5t8 -39zM165 610q0 20 -12.5 33t-32.5 13t-32.5 -13t-12.5 -33q0 -19 13 -32t32 -13t32 13t13 32z" />
<glyph unicode="&#xb1;" horiz-adv-x="275" d="M84 300h-43q-9 0 -15 6t-6 15v23q0 9 6 15t15 6h43q9 0 15 6t6 15v53q0 9 6 15t15 6h23q9 0 15 -6t6 -15v-53q0 -9 6 -15t15 -6h43q9 0 15 -6t6 -15v-23q0 -9 -6 -15t-15 -6h-43q-9 0 -15 -6t-6 -15v-48q0 -9 6 -15t15 -6h38q9 0 15 -6t6 -15v-23q0 -9 -6 -15t-15 -6 h-183q-9 0 -15 6t-6 15v23q0 9 6 15t15 6h38q9 0 15 6t6 15v48q0 9 -6 15t-15 6z" />
<glyph unicode="&#xb2;" horiz-adv-x="180" d="M165 630q0 -48 -15 -79t-32 -56l-33 -47q-5 -8 -9.5 -18t-4.5 -19q0 -11 12 -11h61q9 0 15 -6t6 -15v-13q0 -9 -6 -15t-15 -6h-108q-9 0 -15 6t-6 15v34q0 30 15 54.5t32.5 50t32.5 55t15 70.5q0 11 -6 18t-14 7t-14 -7t-6 -18v-20q0 -8 -6 -14t-14 -6h-15q-8 0 -14 6 t-6 14v20q0 36 20 58t55 22q34 0 54.5 -21t20.5 -59z" />
<glyph unicode="&#xb3;" horiz-adv-x="180" d="M90 510h-20q-8 0 -14 6t-6 14v24q0 2 1 6t2 5l34 58q3 6 3 12q0 8 -5.5 14t-15.5 6h-28q-9 0 -15 6t-6 15v8q0 9 6 15t15 6h98q9 0 15 -6t6 -15v-23q0 -2 -1 -6t-2 -5l-48 -83v-2q0 -6 8.5 -10.5t19 -12t19.5 -21t9 -36.5v-65q0 -38 -20.5 -59t-54.5 -21q-35 0 -55 21.5 t-20 58.5v24q0 9 6 15t15 6h13q9 0 15 -6t6 -15v-24q0 -11 6 -18t14 -7t14 7t6 18v65q0 11 -6 18t-14 7z" />
<glyph unicode="&#xb4;" horiz-adv-x="175" d="M128 670l-52 -89q-2 -4 -8 -7.5t-10 -3.5h-8q-14 0 -14 12q0 5 1 7l33 97q2 5 8 9.5t12 4.5h20q10 0 15.5 -5.5t5.5 -13.5q0 -5 -3 -11z" />
<glyph unicode="&#xb5;" d="M46 540h23q9 0 15 -6t6 -15v-434q0 -30 25 -30t25 30v434q0 9 6 15t15 6h23q9 0 15 -6t6 -15v-498q0 -9 -6 -15t-15 -6h-34q-5 0 -5 5v5h-5l-7 -9l-2 -1q-1 -1 -4 -2.5t-4 -1.5l-10 -1q-8 1 -12 6l-6 9h-5v-169q0 -9 -6 -15t-15 -6h-23q-9 0 -15 6t-6 15v678q0 9 6 15 t15 6z" />
<glyph unicode="&#xb6;" horiz-adv-x="315" d="M94 375q-13 2 -26.5 11t-24 23t-17 31t-6.5 35v120q0 22 7.5 41t21 33.5t32 22.5t39.5 8h174q9 0 15 -6t6 -15v-23q0 -9 -6 -15t-15 -6h-8q-9 0 -15 -6t-6 -15v-773q0 -9 -6 -15t-15 -6h-23q-9 0 -15 6t-6 15v777q0 7 -5 12t-12 5q-8 0 -13 -5t-5 -12v-777q0 -9 -6 -15 t-15 -6h-23q-9 0 -15 6t-6 15v528q0 6 -6 6z" />
<glyph unicode="&#xb7;" horiz-adv-x="120" d="M105 340q0 -19 -13 -32t-32 -13t-32 13t-13 32t13 32t32 13t32 -13t13 -32z" />
<glyph unicode="&#xb8;" horiz-adv-x="180" d="M100 -13v-4q0 -8 8.5 -13t19 -12t19 -19t8.5 -34q0 -34 -21 -54.5t-59 -20.5l-18 2q-2 1 -5 1l-11 4l-4 2l-5 3q-7 4 -7 12v20q0 4 2 4t3 -1l7 -2l7 -3q3 0 4 -1l15 -1q37 3 37 35q0 15 -10 25t-30 10h-7q-8 0 -8 7v32q0 9 6 15t15 6h22q12 0 12 -13z" />
<glyph unicode="&#xb9;" horiz-adv-x="165" d="M150 380v-14q0 -9 -6 -15t-15 -6h-93q-9 0 -15 6t-6 15v14q0 10 6 13.5t13.5 6t14 6t6.5 14.5v205q0 5 -2 5q-1 0 -3 -2l-8 -5l-10 -4l-6 -2l-6 -1h-3q-7 0 -7 9v19q0 6 6.5 9t15 7.5t16.5 12t11 20.5q1 4 5 8t8 4h17q9 0 15 -6t6 -15v-264q0 -11 6 -14.5t13.5 -6t14 -6 t6.5 -13.5z" />
<glyph unicode="&#xba;" horiz-adv-x="195" d="M175 420q0 -38 -20.5 -59t-54.5 -21q-35 0 -55 21.5t-20 58.5v210q0 36 20 58t55 22q34 0 54.5 -21t20.5 -59v-210zM80 630v-210q0 -11 6 -18t14 -7t14 7t6 18v210q0 11 -6 18t-14 7t-14 -7t-6 -18z" />
<glyph unicode="&#xbb;" horiz-adv-x="295" d="M192 140h-19q-22 0 -22 19q0 4 3 10l52 112q0 2 0.5 4t0.5 5q0 2 -0.5 4.5t-0.5 4.5l-52 112q-3 4 -3 10q0 19 22 19h19q5 0 11 -4t8 -8l60 -129q0 -2 0.5 -4.5t0.5 -4.5q0 -3 -0.5 -5t-0.5 -4l-60 -129q-2 -4 -8 -8t-11 -4zM72 140h-19q-22 0 -22 19q0 4 3 10l52 112 q0 2 0.5 4t0.5 5q0 2 -0.5 4.5t-0.5 4.5l-52 112q-3 4 -3 10q0 19 22 19h19q5 0 11 -4t8 -8l60 -129q0 -2 0.5 -4.5t0.5 -4.5q0 -3 -0.5 -5t-0.5 -4l-60 -129q-2 -4 -8 -8t-11 -4z" />
<glyph unicode="&#xbc;" horiz-adv-x="470" d="M113 26l202 659q2 6 8 10.5t13 4.5h12q8 0 14 -6t6 -14q0 -2 -0.5 -3t-0.5 -3l-202 -659q-2 -6 -8 -10.5t-13 -4.5h-11q-10 0 -15.5 6t-5.5 14zM155 380v-14q0 -9 -6 -15t-15 -6h-93q-9 0 -15 6t-6 15v14q0 10 6 13.5t13.5 6t14 6t6.5 14.5v205q0 5 -2 5q-1 0 -3 -2 l-8 -5l-10 -4l-6 -2l-6 -1h-3q-7 0 -7 9v19q0 6 6.5 9t15 7.5t16.5 12t11 20.5q1 4 5 8t8 4h17q9 0 15 -6t6 -15v-264q0 -11 6 -14.5t13.5 -6t14 -6t6.5 -13.5zM260 93v30q1 2 1 4q0 3 1 4l93 218q2 5 8 9t11 4h25q9 0 15 -6t6 -15v-199q0 -9 4.5 -11.5t10.5 -4t10.5 -3.5 t4.5 -11v-25q0 -9 -4.5 -11.5t-10.5 -4t-10.5 -3.5t-4.5 -11v-34q0 -9 -6 -15t-15 -6h-13q-9 0 -15 6t-6 15v28q0 9 -6 15t-15 6h-63q-9 0 -15 6t-6 15zM340 127h4q9 0 15 6t6 15v89h-5l-36 -87q-1 -2 -1 -7q0 -16 17 -16z" />
<glyph unicode="&#xbd;" horiz-adv-x="470" d="M113 26l202 659q2 6 8 10.5t13 4.5h12q8 0 14 -6t6 -14q0 -2 -0.5 -3t-0.5 -3l-202 -659q-2 -6 -8 -10.5t-13 -4.5h-11q-10 0 -15.5 6t-5.5 14zM155 380v-14q0 -9 -6 -15t-15 -6h-93q-9 0 -15 6t-6 15v14q0 10 6 13.5t13.5 6t14 6t6.5 14.5v205q0 5 -2 5q-1 0 -3 -2 l-8 -5l-10 -4l-6 -2l-6 -1h-3q-7 0 -7 9v19q0 6 6.5 9t15 7.5t16.5 12t11 20.5q1 4 5 8t8 4h17q9 0 15 -6t6 -15v-264q0 -11 6 -14.5t13.5 -6t14 -6t6.5 -13.5zM450 287q0 -48 -15 -79t-32 -56l-33 -47q-5 -8 -9.5 -18t-4.5 -19q0 -11 12 -11h61q9 0 15 -6t6 -15v-13 q0 -9 -6 -15t-15 -6h-108q-9 0 -15 6t-6 15v34q0 30 15 54.5t32.5 50t32.5 55t15 70.5q0 11 -6 18t-14 7t-14 -7t-6 -18v-20q0 -8 -6 -14t-14 -6h-15q-8 0 -14 6t-6 14v20q0 36 20 58t55 22q34 0 54.5 -21t20.5 -59z" />
<glyph unicode="&#xbe;" horiz-adv-x="480" d="M123 26l202 659q2 6 8 10.5t13 4.5h12q8 0 14 -6t6 -14q0 -2 -0.5 -3t-0.5 -3l-202 -659q-2 -6 -8 -10.5t-13 -4.5h-11q-10 0 -15.5 6t-5.5 14zM270 93v30q1 2 1 4q0 3 1 4l93 218q2 5 8 9t11 4h25q9 0 15 -6t6 -15v-199q0 -9 4.5 -11.5t10.5 -4t10.5 -3.5t4.5 -11v-25 q0 -9 -4.5 -11.5t-10.5 -4t-10.5 -3.5t-4.5 -11v-34q0 -9 -6 -15t-15 -6h-13q-9 0 -15 6t-6 15v28q0 9 -6 15t-15 6h-63q-9 0 -15 6t-6 15zM350 127h4q9 0 15 6t6 15v89h-5l-36 -87q-1 -2 -1 -7q0 -16 17 -16zM90 510h-20q-8 0 -14 6t-6 14v24q0 2 1 6t2 5l34 58q3 6 3 12 q0 8 -5.5 14t-15.5 6h-28q-9 0 -15 6t-6 15v8q0 9 6 15t15 6h98q9 0 15 -6t6 -15v-23q0 -2 -1 -6t-2 -5l-48 -83v-2q0 -6 8.5 -10.5t19 -12t19.5 -21t9 -36.5v-65q0 -38 -20.5 -59t-54.5 -21q-35 0 -55 21.5t-20 58.5v24q0 9 6 15t15 6h13q9 0 15 -6t6 -15v-24q0 -11 6 -18 t14 -7t14 7t6 18v65q0 11 -6 18t-14 7z" />
<glyph unicode="&#xbf;" horiz-adv-x="250" d="M85 -75q0 -45 40 -45t40 45v114q0 9 6 15t15 6h28q9 0 15 -6t6 -15v-114q0 -54 -30.5 -84.5t-79.5 -30.5q-51 0 -80.5 32t-29.5 83q0 49 6 88t15.5 72.5t20.5 63.5t21 63t17.5 71.5t9.5 86.5q0 8 6 14t15 6h18q9 0 15 -5.5t6 -14.5q-1 -50 -7.5 -89t-15.5 -72.5 t-19 -63.5t-18.5 -62.5t-14 -70.5t-5.5 -87zM95 510q0 40 40 40t40 -40t-40 -40t-40 40z" />
<glyph unicode="&#xc0;" horiz-adv-x="255" d="M93 141l-11 -122q-2 -19 -21 -19h-33q-10 0 -15.5 7t-5.5 16l71 658q2 19 21 19h57q19 0 21 -19l71 -658q0 -9 -5.5 -16t-15.5 -7h-33q-19 0 -21 19l-11 122q-2 19 -21 19h-27q-19 0 -21 -19zM153 253l-23 287h-5l-23 -287q0 -10 5 -16.5t16 -6.5h9q11 0 16 6.5t5 16.5z M104 761l-52 89q-3 6 -3 11q0 8 5.5 13.5t15.5 5.5h20q6 0 12 -4.5t8 -9.5l33 -97q1 -2 1 -7q0 -12 -14 -12h-8q-4 0 -10 3.5t-8 7.5z" />
<glyph unicode="&#xc1;" horiz-adv-x="255" d="M93 141l-11 -122q-2 -19 -21 -19h-33q-10 0 -15.5 7t-5.5 16l71 658q2 19 21 19h57q19 0 21 -19l71 -658q0 -9 -5.5 -16t-15.5 -7h-33q-19 0 -21 19l-11 122q-2 19 -21 19h-27q-19 0 -21 -19zM153 253l-23 287h-5l-23 -287q0 -10 5 -16.5t16 -6.5h9q11 0 16 6.5t5 16.5z M203 850l-52 -89q-2 -4 -8 -7.5t-10 -3.5h-8q-14 0 -14 12q0 5 1 7l33 97q2 5 8 9.5t12 4.5h20q10 0 15.5 -5.5t5.5 -13.5q0 -5 -3 -11z" />
<glyph unicode="&#xc2;" horiz-adv-x="255" d="M93 141l-11 -122q-2 -19 -21 -19h-33q-10 0 -15.5 7t-5.5 16l71 658q2 19 21 19h57q19 0 21 -19l71 -658q0 -9 -5.5 -16t-15.5 -7h-33q-19 0 -21 19l-11 122q-2 19 -21 19h-27q-19 0 -21 -19zM153 253l-23 287h-5l-23 -287q0 -10 5 -16.5t16 -6.5h9q11 0 16 6.5t5 16.5z M38 774l51 95q2 4 8 7.5t11 3.5h34q5 0 11 -3.5t8 -7.5l51 -95q2 -3 2 -9t-4 -10.5t-12 -4.5h-16q-4 0 -10 3.5t-8 7.5l-21 36q-6 12 -18 12t-18 -12l-21 -36q-2 -4 -8 -7.5t-10 -3.5h-15q-18 0 -18 15q0 4 3 9z" />
<glyph unicode="&#xc3;" horiz-adv-x="255" d="M93 141l-11 -122q-2 -19 -21 -19h-33q-10 0 -15.5 7t-5.5 16l71 658q2 19 21 19h57q19 0 21 -19l71 -658q0 -9 -5.5 -16t-15.5 -7h-33q-19 0 -21 19l-11 122q-2 19 -21 19h-27q-19 0 -21 -19zM153 253l-23 287h-5l-23 -287q0 -10 5 -16.5t16 -6.5h9q11 0 16 6.5t5 16.5z M100 780q-15 0 -15 -15v-7q0 -8 -7 -8h-17q-9 0 -15 6t-6 15v24q0 19 13.5 32t36.5 13q7 0 14 -1.5t9 -3.5l14 -11l7 -7l4 -2q2 -1 3 -2l6 -2q3 -1 8 -1q10 3 10 15v8q0 7 8 7h16q9 0 15 -6t6 -15v-24q0 -20 -13.5 -32.5t-36.5 -12.5q-7 0 -14 1.5t-9 3.5l-14 11l-10 10 q-4 4 -13 4z" />
<glyph unicode="&#xc4;" horiz-adv-x="255" d="M93 141l-11 -122q-2 -19 -21 -19h-33q-10 0 -15.5 7t-5.5 16l71 658q2 19 21 19h57q19 0 21 -19l71 -658q0 -9 -5.5 -16t-15.5 -7h-33q-19 0 -21 19l-11 122q-2 19 -21 19h-27q-19 0 -21 -19zM153 253l-23 287h-5l-23 -287q0 -10 5 -16.5t16 -6.5h9q11 0 16 6.5t5 16.5z M105 800q0 -40 -40 -40t-40 40t40 40t40 -40zM225 800q0 -40 -40 -40t-40 40t40 40t40 -40z" />
<glyph unicode="&#xc5;" horiz-adv-x="255" d="M93 141l-11 -122q-2 -19 -21 -19h-33q-10 0 -15.5 7t-5.5 16l71 658q2 19 21 19h57q19 0 21 -19l71 -658q0 -9 -5.5 -16t-15.5 -7h-33q-19 0 -21 19l-11 122q-2 19 -21 19h-27q-19 0 -21 -19zM153 253l-23 287h-5l-23 -287q0 -10 5 -16.5t16 -6.5h9q11 0 16 6.5t5 16.5z M95 816q0 -15 10 -25t25 -10t25 10t10 25t-10 25t-25 10t-25 -10t-10 -25zM210 816q0 -35 -23.5 -55t-56.5 -20t-56.5 20t-23.5 55q0 34 22.5 54.5t57.5 20.5t57.5 -20.5t22.5 -54.5z" />
<glyph unicode="&#xc6;" horiz-adv-x="345" d="M220 609v-203q0 -9 6 -15t15 -6h43q9 0 15 -6t6 -15v-28q0 -9 -6 -15t-15 -6h-43q-9 0 -15 -6t-6 -15v-203q0 -9 6 -15t15 -6h73q9 0 15 -6t6 -15v-28q0 -9 -6 -15t-15 -6h-143q-9 0 -15 6t-6 15v118q0 9 -6 15t-15 6h-15q-19 0 -21 -19l-11 -122q-2 -19 -21 -19h-33 q-10 0 -15.5 7t-5.5 16l71 658q2 19 21 19h215q9 0 15 -6t6 -15v-28q0 -9 -6 -15t-15 -6h-73q-9 0 -15 -6t-6 -15zM140 625l-38 -372q0 -9 5.5 -16t15.5 -7h6q9 0 15 6t6 15v374q0 5 -5 5t-5 -5z" />
<glyph unicode="&#xc7;" horiz-adv-x="280" d="M206 260h28q9 0 15 -6t6 -15v-139q0 -49 -23 -75t-62 -37q-5 -2 -5 -7q0 -6 8.5 -11t19 -12t19 -19.5t8.5 -33.5q0 -34 -21 -54.5t-59 -20.5l-18 2q-2 1 -5 1l-11 4l-4 2l-5 3q-7 4 -7 12v20q0 4 2 4t3 -1l7 -2l7 -3q3 0 4 -1l15 -1q37 3 37 35q0 15 -10 25t-30 10h-7 q-8 0 -8 7v28q0 7 -6 13t-15 12l-18 13q-9 7 -15 15q-21 27 -21 72v500q0 51 29.5 83t80.5 32q49 0 79.5 -30.5t30.5 -84.5v-129q0 -9 -6 -15t-15 -6h-28q-9 0 -15 6t-6 15v129q0 45 -40 45t-40 -45v-500q0 -45 40 -45t40 45v139q0 9 6 15t15 6z" />
<glyph unicode="&#xc8;" horiz-adv-x="235" d="M105 609v-203q0 -9 6 -15t15 -6h48q9 0 15 -6t6 -15v-28q0 -9 -6 -15t-15 -6h-48q-9 0 -15 -6t-6 -15v-203q0 -9 6 -15t15 -6h78q9 0 15 -6t6 -15v-28q0 -9 -6 -15t-15 -6h-148q-9 0 -15 6t-6 15v658q0 9 6 15t15 6h148q9 0 15 -6t6 -15v-28q0 -9 -6 -15t-15 -6h-78 q-9 0 -15 -6t-6 -15zM109 761l-52 89q-3 6 -3 11q0 8 5.5 13.5t15.5 5.5h20q6 0 12 -4.5t8 -9.5l33 -97q1 -2 1 -7q0 -12 -14 -12h-8q-4 0 -10 3.5t-8 7.5z" />
<glyph unicode="&#xc9;" horiz-adv-x="235" d="M105 609v-203q0 -9 6 -15t15 -6h48q9 0 15 -6t6 -15v-28q0 -9 -6 -15t-15 -6h-48q-9 0 -15 -6t-6 -15v-203q0 -9 6 -15t15 -6h78q9 0 15 -6t6 -15v-28q0 -9 -6 -15t-15 -6h-148q-9 0 -15 6t-6 15v658q0 9 6 15t15 6h148q9 0 15 -6t6 -15v-28q0 -9 -6 -15t-15 -6h-78 q-9 0 -15 -6t-6 -15zM203 850l-52 -89q-2 -4 -8 -7.5t-10 -3.5h-8q-14 0 -14 12q0 5 1 7l33 97q2 5 8 9.5t12 4.5h20q10 0 15.5 -5.5t5.5 -13.5q0 -5 -3 -11z" />
<glyph unicode="&#xca;" horiz-adv-x="235" d="M105 609v-203q0 -9 6 -15t15 -6h48q9 0 15 -6t6 -15v-28q0 -9 -6 -15t-15 -6h-48q-9 0 -15 -6t-6 -15v-203q0 -9 6 -15t15 -6h78q9 0 15 -6t6 -15v-28q0 -9 -6 -15t-15 -6h-148q-9 0 -15 6t-6 15v658q0 9 6 15t15 6h148q9 0 15 -6t6 -15v-28q0 -9 -6 -15t-15 -6h-78 q-9 0 -15 -6t-6 -15zM43 774l51 95q2 4 8 7.5t11 3.5h34q5 0 11 -3.5t8 -7.5l51 -95q2 -3 2 -9t-4 -10.5t-12 -4.5h-16q-4 0 -10 3.5t-8 7.5l-21 36q-6 12 -18 12t-18 -12l-21 -36q-2 -4 -8 -7.5t-10 -3.5h-15q-18 0 -18 15q0 4 3 9z" />
<glyph unicode="&#xcb;" horiz-adv-x="235" d="M105 609v-203q0 -9 6 -15t15 -6h48q9 0 15 -6t6 -15v-28q0 -9 -6 -15t-15 -6h-48q-9 0 -15 -6t-6 -15v-203q0 -9 6 -15t15 -6h78q9 0 15 -6t6 -15v-28q0 -9 -6 -15t-15 -6h-148q-9 0 -15 6t-6 15v658q0 9 6 15t15 6h148q9 0 15 -6t6 -15v-28q0 -9 -6 -15t-15 -6h-78 q-9 0 -15 -6t-6 -15zM110 800q0 -40 -40 -40t-40 40t40 40t40 -40zM230 800q0 -40 -40 -40t-40 40t40 40t40 -40z" />
<glyph unicode="&#xcc;" horiz-adv-x="140" d="M105 679v-658q0 -9 -6 -15t-15 -6h-28q-9 0 -15 6t-6 15v658q0 9 6 15t15 6h28q9 0 15 -6t6 -15zM51 761l-52 89q-3 6 -3 11q0 8 5.5 13.5t15.5 5.5h20q6 0 12 -4.5t8 -9.5l33 -97q1 -2 1 -7q0 -12 -14 -12h-8q-4 0 -10 3.5t-8 7.5z" />
<glyph unicode="&#xcd;" horiz-adv-x="140" d="M105 679v-658q0 -9 -6 -15t-15 -6h-28q-9 0 -15 6t-6 15v658q0 9 6 15t15 6h28q9 0 15 -6t6 -15zM143 850l-52 -89q-2 -4 -8 -7.5t-10 -3.5h-8q-14 0 -14 12q0 5 1 7l33 97q2 5 8 9.5t12 4.5h20q10 0 15.5 -5.5t5.5 -13.5q0 -5 -3 -11z" />
<glyph unicode="&#xce;" horiz-adv-x="140" d="M105 679v-658q0 -9 -6 -15t-15 -6h-28q-9 0 -15 6t-6 15v658q0 9 6 15t15 6h28q9 0 15 -6t6 -15zM-15 774l51 95q2 4 8 7.5t11 3.5h34q5 0 11 -3.5t8 -7.5l51 -95q2 -3 2 -9t-4 -10.5t-12 -4.5h-16q-4 0 -10 3.5t-8 7.5l-21 36q-6 12 -18 12t-18 -12l-21 -36 q-2 -4 -8 -7.5t-10 -3.5h-15q-18 0 -18 15q0 4 3 9z" />
<glyph unicode="&#xcf;" horiz-adv-x="140" d="M105 679v-658q0 -9 -6 -15t-15 -6h-28q-9 0 -15 6t-6 15v658q0 9 6 15t15 6h28q9 0 15 -6t6 -15zM52 805q0 -40 -40 -40t-40 40t40 40t40 -40zM172 805q0 -40 -40 -40t-40 40t40 40t40 -40z" />
<glyph unicode="&#xd0;" horiz-adv-x="300" d="M265 585v-470q0 -54 -30.5 -84.5t-79.5 -30.5h-89q-9 0 -15 6t-6 15v277q0 9 -5.5 12t-12 5t-12 5t-5.5 13v34q0 9 5.5 12t12 4.5t12 5t5.5 13.5v277q0 9 6 15t15 6h89q49 0 79.5 -30.5t30.5 -84.5zM195 115v470q0 45 -40 45h-20q-8 0 -14 -6t-6 -14v-207q0 -10 6 -13.5 t12.5 -5.5t12.5 -5.5t6 -12.5v-32q0 -10 -6 -13.5t-12.5 -5.5t-12.5 -5.5t-6 -12.5v-207q0 -8 6 -14t14 -6h20q40 0 40 45z" />
<glyph unicode="&#xd1;" horiz-adv-x="290" d="M110 380h-5v-359q0 -9 -6 -15t-15 -6h-28q-9 0 -15 6t-6 15v658q0 9 6 15t15 6h32q7 0 13 -5t7 -12l72 -363h5v359q0 9 6 15t15 6h28q9 0 15 -6t6 -15v-658q0 -9 -6 -15t-15 -6h-32q-7 0 -13 5t-7 12zM115 780q-15 0 -15 -15v-7q0 -8 -7 -8h-17q-9 0 -15 6t-6 15v24 q0 19 13.5 32t36.5 13q7 0 14 -1.5t9 -3.5l14 -11l7 -7l4 -2q2 -1 3 -2l6 -2q3 -1 8 -1q10 3 10 15v8q0 7 8 7h16q9 0 15 -6t6 -15v-24q0 -20 -13.5 -32.5t-36.5 -12.5q-7 0 -14 1.5t-9 3.5l-14 11l-10 10q-4 4 -13 4z" />
<glyph unicode="&#xd2;" horiz-adv-x="290" d="M145 55q40 0 40 45v500q0 45 -40 45t-40 -45v-500q0 -45 40 -45zM145 715q49 0 79.5 -30.5t30.5 -84.5v-500q0 -54 -30.5 -84.5t-79.5 -30.5q-51 0 -80.5 32t-29.5 83v500q0 51 29.5 83t80.5 32zM119 771l-52 89q-3 6 -3 11q0 8 5.5 13.5t15.5 5.5h20q6 0 12 -4.5t8 -9.5 l33 -97q1 -2 1 -7q0 -12 -14 -12h-8q-4 0 -10 3.5t-8 7.5z" />
<glyph unicode="&#xd3;" horiz-adv-x="290" d="M145 55q40 0 40 45v500q0 45 -40 45t-40 -45v-500q0 -45 40 -45zM145 715q49 0 79.5 -30.5t30.5 -84.5v-500q0 -54 -30.5 -84.5t-79.5 -30.5q-51 0 -80.5 32t-29.5 83v500q0 51 29.5 83t80.5 32zM213 860l-52 -89q-2 -4 -8 -7.5t-10 -3.5h-8q-14 0 -14 12q0 5 1 7l33 97 q2 5 8 9.5t12 4.5h20q10 0 15.5 -5.5t5.5 -13.5q0 -5 -3 -11z" />
<glyph unicode="&#xd4;" horiz-adv-x="290" d="M145 55q40 0 40 45v500q0 45 -40 45t-40 -45v-500q0 -45 40 -45zM145 715q49 0 79.5 -30.5t30.5 -84.5v-500q0 -54 -30.5 -84.5t-79.5 -30.5q-51 0 -80.5 32t-29.5 83v500q0 51 29.5 83t80.5 32zM58 784l51 95q2 4 8 7.5t11 3.5h34q5 0 11 -3.5t8 -7.5l51 -95q2 -3 2 -9 t-4 -10.5t-12 -4.5h-16q-4 0 -10 3.5t-8 7.5l-21 36q-6 12 -18 12t-18 -12l-21 -36q-2 -4 -8 -7.5t-10 -3.5h-15q-18 0 -18 15q0 4 3 9z" />
<glyph unicode="&#xd5;" horiz-adv-x="290" d="M145 55q40 0 40 45v500q0 45 -40 45t-40 -45v-500q0 -45 40 -45zM145 715q49 0 79.5 -30.5t30.5 -84.5v-500q0 -54 -30.5 -84.5t-79.5 -30.5q-51 0 -80.5 32t-29.5 83v500q0 51 29.5 83t80.5 32zM115 790q-15 0 -15 -15v-7q0 -8 -7 -8h-17q-9 0 -15 6t-6 15v24 q0 19 13.5 32t36.5 13q7 0 14 -1.5t9 -3.5l14 -11l7 -7l4 -2q2 -1 3 -2l6 -2q3 -1 8 -1q10 3 10 15v8q0 7 8 7h16q9 0 15 -6t6 -15v-24q0 -20 -13.5 -32.5t-36.5 -12.5q-7 0 -14 1.5t-9 3.5l-14 11l-10 10q-4 4 -13 4z" />
<glyph unicode="&#xd6;" horiz-adv-x="290" d="M145 55q40 0 40 45v500q0 45 -40 45t-40 -45v-500q0 -45 40 -45zM145 715q49 0 79.5 -30.5t30.5 -84.5v-500q0 -54 -30.5 -84.5t-79.5 -30.5q-51 0 -80.5 32t-29.5 83v500q0 51 29.5 83t80.5 32zM125 810q0 -40 -40 -40t-40 40t40 40t40 -40zM245 810q0 -40 -40 -40 t-40 40t40 40t40 -40z" />
<glyph unicode="&#xd7;" horiz-adv-x="260" d="M225 380l-40 -40q-6 -6 -6 -15t6 -15l40 -40q6 -6 6 -15t-6 -15l-15 -15q-6 -6 -15 -6t-15 7l-35 37q-7 7 -15 7t-15 -7l-35 -37q-6 -7 -16 -7q-8 0 -14 6l-16 16q-6 6 -6 14q0 9 6 15l38 41q5 7 5 14t-5 14l-38 41q-6 6 -6 14q0 9 6 15l16 16q6 6 14 6q10 0 16 -7 l35 -37q6 -7 15 -7t15 7l35 37q6 7 15 7t15 -6l15 -15q6 -6 6 -15t-6 -15z" />
<glyph unicode="&#xd8;" horiz-adv-x="300" d="M150 715q49 0 79.5 -30.5t30.5 -84.5v-27q0 -5 3 -7.5t6 -2.5q4 0 7 4l4 6q3 4 9 4q11 0 11 -11v-50q0 -1 -1.5 -5.5t-2.5 -5.5l-32 -50q-1 -1 -2.5 -5.5t-1.5 -5.5v-344q0 -54 -30.5 -84.5t-79.5 -30.5q-51 0 -80.5 32t-29.5 83v28q0 4 -3 6t-6 2q-4 0 -7 -3l-4 -5 q-4 -5 -10 -5q-10 0 -10 11v49q0 2 1.5 6.5t2.5 6.5l32 43q1 2 2.5 6.5t1.5 6.5v348q0 51 29.5 83t80.5 32zM110 600v-195q0 -11 6.5 -16.5t14.5 -5.5q11 0 17 9l38 52q1 2 2.5 6.5t1.5 6.5v143q0 45 -40 45t-40 -45zM150 55q40 0 40 45v195q0 10 -6.5 16t-14.5 6 q-11 0 -17 -9l-38 -52q-1 -2 -2.5 -6.5t-1.5 -6.5v-143q0 -45 40 -45z" />
<glyph unicode="&#xd9;" horiz-adv-x="290" d="M206 700h28q9 0 15 -6t6 -15v-579q0 -54 -30.5 -84.5t-79.5 -30.5q-51 0 -80.5 32t-29.5 83v579q0 9 6 15t15 6h28q9 0 15 -6t6 -15v-579q0 -45 40 -45t40 45v579q0 9 6 15t15 6zM114 771l-52 89q-3 6 -3 11q0 8 5.5 13.5t15.5 5.5h20q6 0 12 -4.5t8 -9.5l33 -97 q1 -2 1 -7q0 -12 -14 -12h-8q-4 0 -10 3.5t-8 7.5z" />
<glyph unicode="&#xda;" horiz-adv-x="290" d="M206 700h28q9 0 15 -6t6 -15v-579q0 -54 -30.5 -84.5t-79.5 -30.5q-51 0 -80.5 32t-29.5 83v579q0 9 6 15t15 6h28q9 0 15 -6t6 -15v-579q0 -45 40 -45t40 45v579q0 9 6 15t15 6zM218 860l-52 -89q-2 -4 -8 -7.5t-10 -3.5h-8q-14 0 -14 12q0 5 1 7l33 97q2 5 8 9.5 t12 4.5h20q10 0 15.5 -5.5t5.5 -13.5q0 -5 -3 -11z" />
<glyph unicode="&#xdb;" horiz-adv-x="290" d="M206 700h28q9 0 15 -6t6 -15v-579q0 -54 -30.5 -84.5t-79.5 -30.5q-51 0 -80.5 32t-29.5 83v579q0 9 6 15t15 6h28q9 0 15 -6t6 -15v-579q0 -45 40 -45t40 45v579q0 9 6 15t15 6zM58 784l51 95q2 4 8 7.5t11 3.5h34q5 0 11 -3.5t8 -7.5l51 -95q2 -3 2 -9t-4 -10.5 t-12 -4.5h-16q-4 0 -10 3.5t-8 7.5l-21 36q-6 12 -18 12t-18 -12l-21 -36q-2 -4 -8 -7.5t-10 -3.5h-15q-18 0 -18 15q0 4 3 9z" />
<glyph unicode="&#xdc;" horiz-adv-x="290" d="M206 700h28q9 0 15 -6t6 -15v-579q0 -54 -30.5 -84.5t-79.5 -30.5q-51 0 -80.5 32t-29.5 83v579q0 9 6 15t15 6h28q9 0 15 -6t6 -15v-579q0 -45 40 -45t40 45v579q0 9 6 15t15 6zM125 810q0 -40 -40 -40t-40 40t40 40t40 -40zM245 810q0 -40 -40 -40t-40 40t40 40t40 -40 z" />
<glyph unicode="&#xdd;" horiz-adv-x="260" d="M165 217v-196q0 -9 -6 -15t-15 -6h-28q-9 0 -15 6t-6 15v196l-85 458q-2 10 4 17.5t16 7.5h32q7 0 13.5 -5.5t7.5 -12.5l44 -299q0 -3 3 -3t3 3l44 299q1 7 7.5 12.5t13.5 5.5h32q10 0 16 -7.5t4 -17.5zM208 860l-52 -89q-2 -4 -8 -7.5t-10 -3.5h-8q-14 0 -14 12q0 5 1 7 l33 97q2 5 8 9.5t12 4.5h20q10 0 15.5 -5.5t5.5 -13.5q0 -5 -3 -11z" />
<glyph unicode="&#xde;" horiz-adv-x="270" d="M35 6v688q0 9 6 15t15 6h28q9 0 15 -6t6 -15v-56q0 -13 13 -13h12q49 0 79.5 -30.5t30.5 -84.5v-320q0 -54 -30.5 -84.5t-79.5 -30.5h-12q-13 0 -13 -12v-57q0 -9 -6 -15t-15 -6h-28q-9 0 -15 6t-6 15zM170 190v320q0 45 -40 45h-12q-13 0 -13 -12v-385q0 -13 13 -13h12 q40 0 40 45z" />
<glyph unicode="&#xdf;" horiz-adv-x="260" d="M220 610q0 -31 -7 -58l-31 -111q-7 -27 -7 -56q0 -41 10 -73t22.5 -65t22.5 -71t10 -91q0 -49 -24 -74.5t-66 -25.5h-12q-13 0 -13 12v41q0 12 13 12h12q25 0 25 35q-1 23 -2.5 42t-6.5 36l-21 65q-5 16 -10.5 33t-10 35.5t-7 40.5t-2.5 48q0 29 7 56l14 55q7 27 13 55.5 t6 58.5q0 35 -30 35t-30 -35v-589q0 -9 -6 -15t-15 -6h-23q-9 0 -15 6t-6 15v589q0 43 25.5 71.5t69.5 28.5q43 0 69 -27.5t26 -72.5z" />
<glyph unicode="&#xe0;" horiz-adv-x="225" d="M110 320h13q12 0 12 13v122q0 35 -25 35q-8 0 -14 -7.5t-6 -27.5v-59q0 -9 -6 -15t-15 -6h-23q-9 0 -15 6t-6 15v59q0 49 23.5 74.5t61.5 25.5q42 0 66 -25t24 -75v-434q0 -9 -6 -15t-15 -6h-29q-10 0 -10 10v10h-5q-15 -35 -45 -35q-26 0 -48 25.5t-22 74.5v135 q0 49 24 74.5t66 25.5zM123 255h-13q-25 0 -25 -35v-135q0 -35 20 -35q10 0 20 12.5t10 22.5v158q0 12 -12 12zM89 621l-52 89q-3 6 -3 11q0 8 5.5 13.5t15.5 5.5h20q6 0 12 -4.5t8 -9.5l33 -97q1 -2 1 -7q0 -12 -14 -12h-8q-4 0 -10 3.5t-8 7.5z" />
<glyph unicode="&#xe1;" horiz-adv-x="225" d="M110 320h13q12 0 12 13v122q0 35 -25 35q-8 0 -14 -7.5t-6 -27.5v-59q0 -9 -6 -15t-15 -6h-23q-9 0 -15 6t-6 15v59q0 49 23.5 74.5t61.5 25.5q42 0 66 -25t24 -75v-434q0 -9 -6 -15t-15 -6h-29q-10 0 -10 10v10h-5q-15 -35 -45 -35q-26 0 -48 25.5t-22 74.5v135 q0 49 24 74.5t66 25.5zM123 255h-13q-25 0 -25 -35v-135q0 -35 20 -35q10 0 20 12.5t10 22.5v158q0 12 -12 12zM183 710l-52 -89q-2 -4 -8 -7.5t-10 -3.5h-8q-14 0 -14 12q0 5 1 7l33 97q2 5 8 9.5t12 4.5h20q10 0 15.5 -5.5t5.5 -13.5q0 -5 -3 -11z" />
<glyph unicode="&#xe2;" horiz-adv-x="225" d="M110 320h13q12 0 12 13v122q0 35 -25 35q-8 0 -14 -7.5t-6 -27.5v-59q0 -9 -6 -15t-15 -6h-23q-9 0 -15 6t-6 15v59q0 49 23.5 74.5t61.5 25.5q42 0 66 -25t24 -75v-434q0 -9 -6 -15t-15 -6h-29q-10 0 -10 10v10h-5q-15 -35 -45 -35q-26 0 -48 25.5t-22 74.5v135 q0 49 24 74.5t66 25.5zM123 255h-13q-25 0 -25 -35v-135q0 -35 20 -35q10 0 20 12.5t10 22.5v158q0 12 -12 12zM30 634l51 95q2 4 8 7.5t11 3.5h34q5 0 11 -3.5t8 -7.5l51 -95q2 -3 2 -9t-4 -10.5t-12 -4.5h-16q-4 0 -10 3.5t-8 7.5l-21 36q-6 12 -18 12t-18 -12l-21 -36 q-2 -4 -8 -7.5t-10 -3.5h-15q-18 0 -18 15q0 4 3 9z" />
<glyph unicode="&#xe3;" horiz-adv-x="225" d="M110 320h13q12 0 12 13v122q0 35 -25 35q-8 0 -14 -7.5t-6 -27.5v-59q0 -9 -6 -15t-15 -6h-23q-9 0 -15 6t-6 15v59q0 49 23.5 74.5t61.5 25.5q42 0 66 -25t24 -75v-434q0 -9 -6 -15t-15 -6h-29q-10 0 -10 10v10h-5q-15 -35 -45 -35q-26 0 -48 25.5t-22 74.5v135 q0 49 24 74.5t66 25.5zM123 255h-13q-25 0 -25 -35v-135q0 -35 20 -35q10 0 20 12.5t10 22.5v158q0 12 -12 12zM85 646q-15 0 -15 -15v-7q0 -8 -7 -8h-17q-9 0 -15 6t-6 15v24q0 19 13.5 32t36.5 13q7 0 14 -1.5t9 -3.5l14 -11l7 -7l4 -2q2 -1 3 -2l6 -2q3 -1 8 -1 q10 3 10 15v8q0 7 8 7h16q9 0 15 -6t6 -15v-24q0 -20 -13.5 -32.5t-36.5 -12.5q-7 0 -14 1.5t-9 3.5l-14 11l-10 10q-4 4 -13 4z" />
<glyph unicode="&#xe4;" horiz-adv-x="225" d="M110 320h13q12 0 12 13v122q0 35 -25 35q-8 0 -14 -7.5t-6 -27.5v-59q0 -9 -6 -15t-15 -6h-23q-9 0 -15 6t-6 15v59q0 49 23.5 74.5t61.5 25.5q42 0 66 -25t24 -75v-434q0 -9 -6 -15t-15 -6h-29q-10 0 -10 10v10h-5q-15 -35 -45 -35q-26 0 -48 25.5t-22 74.5v135 q0 49 24 74.5t66 25.5zM123 255h-13q-25 0 -25 -35v-135q0 -35 20 -35q10 0 20 12.5t10 22.5v158q0 12 -12 12zM92 665q0 -40 -40 -40t-40 40t40 40t40 -40zM212 665q0 -40 -40 -40t-40 40t40 40t40 -40z" />
<glyph unicode="&#xe5;" horiz-adv-x="225" d="M110 320h13q12 0 12 13v122q0 35 -25 35q-8 0 -14 -7.5t-6 -27.5v-59q0 -9 -6 -15t-15 -6h-23q-9 0 -15 6t-6 15v59q0 49 23.5 74.5t61.5 25.5q42 0 66 -25t24 -75v-434q0 -9 -6 -15t-15 -6h-29q-10 0 -10 10v10h-5q-15 -35 -45 -35q-26 0 -48 25.5t-22 74.5v135 q0 49 24 74.5t66 25.5zM123 255h-13q-25 0 -25 -35v-135q0 -35 20 -35q10 0 20 12.5t10 22.5v158q0 12 -12 12zM75 690q0 -15 10 -25t25 -10t25 10t10 25t-10 25t-25 10t-25 -10t-10 -25zM190 690q0 -35 -23.5 -55t-56.5 -20t-56.5 20t-23.5 55q0 34 22.5 54.5t57.5 20.5 t57.5 -20.5t22.5 -54.5z" />
<glyph unicode="&#xe6;" horiz-adv-x="345" d="M25 215q0 50 23.5 75t66.5 25h13q12 0 12 13v127q0 35 -25 35t-25 -35v-64q0 -9 -6 -15t-15 -6h-23q-9 0 -15 6t-6 15v64q0 50 23.5 75t66.5 25q35 0 50 -22q4 -4 8 -4q3 0 6 3q21 23 51 23q42 0 66 -25t24 -75v-184q0 -9 -6 -15t-15 -6h-73q-9 0 -15 -6t-6 -15v-144 q0 -35 25 -35t25 35v94q0 9 6 15t15 6h23q9 0 15 -6t6 -15v-94q0 -49 -24 -74.5t-66 -25.5q-35 0 -55 30h-5q-20 -30 -55 -30q-42 0 -66 25.5t-24 74.5v130zM90 215v-130q0 -35 25 -35t25 35v153q0 12 -12 12h-13q-25 0 -25 -35zM205 455v-119q0 -9 6 -15t15 -6h8q9 0 15 6 t6 15v119q0 35 -25 35t-25 -35z" />
<glyph unicode="&#xe7;" d="M161 209h23q9 0 15 -6t6 -15v-104q0 -40 -18 -63.5t-41 -31.5q-6 -2 -6 -8t8.5 -11t19 -12t19 -19.5t8.5 -33.5q0 -34 -21 -54.5t-59 -20.5l-18 2q-2 1 -5 1l-11 4l-4 2l-5 3q-7 4 -7 12v20q0 4 2 4t3 -1l7 -2l7 -3q3 0 4 -1l15 -1q37 3 37 35q0 15 -10 25t-30 10h-7 q-8 0 -8 7v25q0 7 -5.5 13t-13.5 12l-15 10q-7 6 -11 13q-15 22 -15 64v370q0 50 23.5 75t66.5 25q42 0 66 -25t24 -75v-94q0 -9 -6 -15t-15 -6h-23q-9 0 -15 6t-6 15v94q0 35 -25 35t-25 -35v-370q0 -35 25 -35t25 35v104q0 9 6 15t15 6z" />
<glyph unicode="&#xe8;" d="M161 200h23q9 0 15 -6t6 -15v-94q0 -49 -24 -74.5t-66 -25.5t-66 25.5t-24 74.5v370q0 50 23.5 75t66.5 25q42 0 66 -25t24 -75v-184q0 -9 -6 -15t-15 -6h-73q-9 0 -15 -6t-6 -15v-144q0 -35 25 -35t25 35v94q0 9 6 15t15 6zM90 455v-119q0 -9 6 -15t15 -6h8q9 0 15 6 t6 15v119q0 35 -25 35t-25 -35zM94 621l-52 89q-3 6 -3 11q0 8 5.5 13.5t15.5 5.5h20q6 0 12 -4.5t8 -9.5l33 -97q1 -2 1 -7q0 -12 -14 -12h-8q-4 0 -10 3.5t-8 7.5z" />
<glyph unicode="&#xe9;" d="M161 200h23q9 0 15 -6t6 -15v-94q0 -49 -24 -74.5t-66 -25.5t-66 25.5t-24 74.5v370q0 50 23.5 75t66.5 25q42 0 66 -25t24 -75v-184q0 -9 -6 -15t-15 -6h-73q-9 0 -15 -6t-6 -15v-144q0 -35 25 -35t25 35v94q0 9 6 15t15 6zM90 455v-119q0 -9 6 -15t15 -6h8q9 0 15 6 t6 15v119q0 35 -25 35t-25 -35zM188 710l-52 -89q-2 -4 -8 -7.5t-10 -3.5h-8q-14 0 -14 12q0 5 1 7l33 97q2 5 8 9.5t12 4.5h20q10 0 15.5 -5.5t5.5 -13.5q0 -5 -3 -11z" />
<glyph unicode="&#xea;" d="M161 200h23q9 0 15 -6t6 -15v-94q0 -49 -24 -74.5t-66 -25.5t-66 25.5t-24 74.5v370q0 50 23.5 75t66.5 25q42 0 66 -25t24 -75v-184q0 -9 -6 -15t-15 -6h-73q-9 0 -15 -6t-6 -15v-144q0 -35 25 -35t25 35v94q0 9 6 15t15 6zM90 455v-119q0 -9 6 -15t15 -6h8q9 0 15 6 t6 15v119q0 35 -25 35t-25 -35zM30 634l51 95q2 4 8 7.5t11 3.5h34q5 0 11 -3.5t8 -7.5l51 -95q2 -3 2 -9t-4 -10.5t-12 -4.5h-16q-4 0 -10 3.5t-8 7.5l-21 36q-6 12 -18 12t-18 -12l-21 -36q-2 -4 -8 -7.5t-10 -3.5h-15q-18 0 -18 15q0 4 3 9z" />
<glyph unicode="&#xeb;" d="M161 200h23q9 0 15 -6t6 -15v-94q0 -49 -24 -74.5t-66 -25.5t-66 25.5t-24 74.5v370q0 50 23.5 75t66.5 25q42 0 66 -25t24 -75v-184q0 -9 -6 -15t-15 -6h-73q-9 0 -15 -6t-6 -15v-144q0 -35 25 -35t25 35v94q0 9 6 15t15 6zM90 455v-119q0 -9 6 -15t15 -6h8q9 0 15 6 t6 15v119q0 35 -25 35t-25 -35zM97 660q0 -40 -40 -40t-40 40t40 40t40 -40zM217 660q0 -40 -40 -40t-40 40t40 40t40 -40z" />
<glyph unicode="&#xec;" horiz-adv-x="125" d="M74 0h-23q-9 0 -15 6t-6 15v498q0 9 6 15t15 6h23q9 0 15 -6t6 -15v-498q0 -9 -6 -15t-15 -6zM41 621l-52 89q-3 6 -3 11q0 8 5.5 13.5t15.5 5.5h20q6 0 12 -4.5t8 -9.5l33 -97q1 -2 1 -7q0 -12 -14 -12h-8q-4 0 -10 3.5t-8 7.5z" />
<glyph unicode="&#xed;" horiz-adv-x="125" d="M74 0h-23q-9 0 -15 6t-6 15v498q0 9 6 15t15 6h23q9 0 15 -6t6 -15v-498q0 -9 -6 -15t-15 -6zM138 710l-52 -89q-2 -4 -8 -7.5t-10 -3.5h-8q-14 0 -14 12q0 5 1 7l33 97q2 5 8 9.5t12 4.5h20q10 0 15.5 -5.5t5.5 -13.5q0 -5 -3 -11z" />
<glyph unicode="&#xee;" horiz-adv-x="125" d="M74 0h-23q-9 0 -15 6t-6 15v498q0 9 6 15t15 6h23q9 0 15 -6t6 -15v-498q0 -9 -6 -15t-15 -6zM-20 634l51 95q2 4 8 7.5t11 3.5h34q5 0 11 -3.5t8 -7.5l51 -95q2 -3 2 -9t-4 -10.5t-12 -4.5h-16q-4 0 -10 3.5t-8 7.5l-21 36q-6 12 -18 12t-18 -12l-21 -36q-2 -4 -8 -7.5 t-10 -3.5h-15q-18 0 -18 15q0 4 3 9z" />
<glyph unicode="&#xef;" horiz-adv-x="125" d="M74 0h-23q-9 0 -15 6t-6 15v498q0 9 6 15t15 6h23q9 0 15 -6t6 -15v-498q0 -9 -6 -15t-15 -6zM42 660q0 -40 -40 -40t-40 40t40 40t40 -40zM162 660q0 -40 -40 -40t-40 40t40 40t40 -40z" />
<glyph unicode="&#xf0;" d="M144 626l21 -23q11 -14 18.5 -31t12.5 -41t7 -56t2 -75v-315q0 -49 -24 -74.5t-66 -25.5t-66 25.5t-24 74.5v285q0 48 21 73t47 27q3 0 4 -1l11 -2l13 -7l14 -15h5q0 27 -0.5 46t-3 33.5t-6.5 25t-11 20.5l-9 10q-5 5 -9 5q-6 0 -10 -6l-13 -18q-8 -8 -18 -8q-8 0 -12 4 l-6 5q-8 8 -8 17q0 8 4 13l9 11q4 5 4 12q0 10 -8 18l-6 4q-9 7 -9 18q0 5 5 12l9 12q8 8 17 8q8 0 13 -4l6 -5q5 -5 12 -5q12 0 18 9l9 12q8 8 18 8q7 0 12 -4l6 -5q8 -8 8 -18q0 -7 -4 -12l-15 -19q-3 -5 -3 -8q0 -6 5 -10zM90 370v-285q0 -35 25 -35t25 35v285 q0 1 -1 4.5t-1 4.5l-7 13l-8 9q-4 4 -13 4q-8 0 -14 -7.5t-6 -27.5z" />
<glyph unicode="&#xf1;" d="M184 0h-23q-9 0 -15 6t-6 15v434q0 35 -20 35t-30 -35v-434q0 -9 -6 -15t-15 -6h-23q-9 0 -15 6t-6 15v498q0 9 6 15t15 6h29q10 0 10 -10v-10h5q20 35 45 35t47.5 -25t22.5 -75v-434q0 -9 -6 -15t-15 -6zM90 640q-15 0 -15 -15v-7q0 -8 -7 -8h-17q-9 0 -15 6t-6 15v24 q0 19 13.5 32t36.5 13q7 0 14 -1.5t9 -3.5l14 -11l7 -7l4 -2q2 -1 3 -2l6 -2q3 -1 8 -1q10 3 10 15v8q0 7 8 7h16q9 0 15 -6t6 -15v-24q0 -20 -13.5 -32.5t-36.5 -12.5q-7 0 -14 1.5t-9 3.5l-14 11l-10 10q-4 4 -13 4z" />
<glyph unicode="&#xf2;" d="M25 85v370q0 50 23.5 75t66.5 25q42 0 66 -25t24 -75v-370q0 -49 -24 -74.5t-66 -25.5t-66 25.5t-24 74.5zM90 455v-370q0 -35 25 -35t25 35v370q0 35 -25 35t-25 -35zM94 621l-52 89q-3 6 -3 11q0 8 5.5 13.5t15.5 5.5h20q6 0 12 -4.5t8 -9.5l33 -97q1 -2 1 -7 q0 -12 -14 -12h-8q-4 0 -10 3.5t-8 7.5z" />
<glyph unicode="&#xf3;" d="M25 85v370q0 50 23.5 75t66.5 25q42 0 66 -25t24 -75v-370q0 -49 -24 -74.5t-66 -25.5t-66 25.5t-24 74.5zM90 455v-370q0 -35 25 -35t25 35v370q0 35 -25 35t-25 -35zM188 710l-52 -89q-2 -4 -8 -7.5t-10 -3.5h-8q-14 0 -14 12q0 5 1 7l33 97q2 5 8 9.5t12 4.5h20 q10 0 15.5 -5.5t5.5 -13.5q0 -5 -3 -11z" />
<glyph unicode="&#xf4;" d="M25 85v370q0 50 23.5 75t66.5 25q42 0 66 -25t24 -75v-370q0 -49 -24 -74.5t-66 -25.5t-66 25.5t-24 74.5zM90 455v-370q0 -35 25 -35t25 35v370q0 35 -25 35t-25 -35zM30 634l51 95q2 4 8 7.5t11 3.5h34q5 0 11 -3.5t8 -7.5l51 -95q2 -3 2 -9t-4 -10.5t-12 -4.5h-16 q-4 0 -10 3.5t-8 7.5l-21 36q-6 12 -18 12t-18 -12l-21 -36q-2 -4 -8 -7.5t-10 -3.5h-15q-18 0 -18 15q0 4 3 9z" />
<glyph unicode="&#xf5;" d="M25 85v370q0 50 23.5 75t66.5 25q42 0 66 -25t24 -75v-370q0 -49 -24 -74.5t-66 -25.5t-66 25.5t-24 74.5zM90 455v-370q0 -35 25 -35t25 35v370q0 35 -25 35t-25 -35zM90 640q-15 0 -15 -15v-7q0 -8 -7 -8h-17q-9 0 -15 6t-6 15v24q0 19 13.5 32t36.5 13q7 0 14 -1.5 t9 -3.5l14 -11l7 -7l4 -2q2 -1 3 -2l6 -2q3 -1 8 -1q10 3 10 15v8q0 7 8 7h16q9 0 15 -6t6 -15v-24q0 -20 -13.5 -32.5t-36.5 -12.5q-7 0 -14 1.5t-9 3.5l-14 11l-10 10q-4 4 -13 4z" />
<glyph unicode="&#xf6;" d="M25 85v370q0 50 23.5 75t66.5 25q42 0 66 -25t24 -75v-370q0 -49 -24 -74.5t-66 -25.5t-66 25.5t-24 74.5zM90 455v-370q0 -35 25 -35t25 35v370q0 35 -25 35t-25 -35zM97 660q0 -40 -40 -40t-40 40t40 40t40 -40zM217 660q0 -40 -40 -40t-40 40t40 40t40 -40z" />
<glyph unicode="&#xf7;" horiz-adv-x="270" d="M130 500q40 0 40 -40t-40 -40t-40 40t40 40zM250 334v-23q0 -9 -6 -15t-15 -6h-188q-9 0 -15 6t-6 15v23q0 9 6 15t15 6h188q9 0 15 -6t6 -15zM130 145q-40 0 -40 40t40 40t40 -40t-40 -40z" />
<glyph unicode="&#xf8;" horiz-adv-x="240" d="M30 85v20q0 7 -7 7q-4 0 -6 -2l-2 -2q-3 -4 -7 -4q-8 0 -8 9v49q0 2 2 7t3 7l20 23q1 2 3 7t2 7v242q0 50 23.5 75t66.5 25q42 0 66 -25t24 -75v-20q0 -8 7 -8q3 0 6 3l2 3q2 2 6 2q3 0 6 -2t3 -6v-49q0 -2 -2 -7t-3 -7l-20 -23q-1 -2 -3 -7t-2 -7v-242q0 -49 -24 -74.5 t-66 -25.5t-66 25.5t-24 74.5zM120 50q25 0 25 35v136q0 6 -4.5 10t-9.5 4q-7 0 -11 -5l-20 -24q-1 -2 -3 -7t-2 -7v-107q0 -35 25 -35zM95 455v-136q0 -7 4.5 -11t9.5 -4q6 0 11 6l20 24q1 2 3 7t2 7v107q0 35 -25 35t-25 -35z" />
<glyph unicode="&#xf9;" d="M69 540q9 0 15 -6t6 -15v-434q0 -35 20 -35t30 35v434q0 9 6 15t15 6h23q9 0 15 -6t6 -15v-498q0 -9 -6 -15t-15 -6h-29q-10 0 -10 10v10h-5q-20 -35 -45 -35t-47.5 25t-22.5 75v434q0 9 6 15t15 6h23zM99 621l-52 89q-3 6 -3 11q0 8 5.5 13.5t15.5 5.5h20q6 0 12 -4.5 t8 -9.5l33 -97q1 -2 1 -7q0 -12 -14 -12h-8q-4 0 -10 3.5t-8 7.5z" />
<glyph unicode="&#xfa;" d="M69 540q9 0 15 -6t6 -15v-434q0 -35 20 -35t30 35v434q0 9 6 15t15 6h23q9 0 15 -6t6 -15v-498q0 -9 -6 -15t-15 -6h-29q-10 0 -10 10v10h-5q-20 -35 -45 -35t-47.5 25t-22.5 75v434q0 9 6 15t15 6h23zM188 710l-52 -89q-2 -4 -8 -7.5t-10 -3.5h-8q-14 0 -14 12q0 5 1 7 l33 97q2 5 8 9.5t12 4.5h20q10 0 15.5 -5.5t5.5 -13.5q0 -5 -3 -11z" />
<glyph unicode="&#xfb;" d="M69 540q9 0 15 -6t6 -15v-434q0 -35 20 -35t30 35v434q0 9 6 15t15 6h23q9 0 15 -6t6 -15v-498q0 -9 -6 -15t-15 -6h-29q-10 0 -10 10v10h-5q-20 -35 -45 -35t-47.5 25t-22.5 75v434q0 9 6 15t15 6h23zM30 634l51 95q2 4 8 7.5t11 3.5h34q5 0 11 -3.5t8 -7.5l51 -95 q2 -3 2 -9t-4 -10.5t-12 -4.5h-16q-4 0 -10 3.5t-8 7.5l-21 36q-6 12 -18 12t-18 -12l-21 -36q-2 -4 -8 -7.5t-10 -3.5h-15q-18 0 -18 15q0 4 3 9z" />
<glyph unicode="&#xfc;" d="M69 540q9 0 15 -6t6 -15v-434q0 -35 20 -35t30 35v434q0 9 6 15t15 6h23q9 0 15 -6t6 -15v-498q0 -9 -6 -15t-15 -6h-29q-10 0 -10 10v10h-5q-20 -35 -45 -35t-47.5 25t-22.5 75v434q0 9 6 15t15 6h23zM97 665q0 -40 -40 -40t-40 40t40 40t40 -40zM217 665q0 -40 -40 -40 t-40 40t40 40t40 -40z" />
<glyph unicode="&#xfd;" horiz-adv-x="220" d="M97 -180h-23q-10 0 -16 7t-5 17l22 156l-67 516q-1 10 5 17t16 7h27q19 0 21 -19l28 -346h5l38 346q2 19 21 19h22q10 0 16 -7t5 -17l-94 -678q-2 -7 -8 -12.5t-13 -5.5zM183 710l-52 -89q-2 -4 -8 -7.5t-10 -3.5h-8q-14 0 -14 12q0 5 1 7l33 97q2 5 8 9.5t12 4.5h20 q10 0 15.5 -5.5t5.5 -13.5q0 -5 -3 -11z" />
<glyph unicode="&#xfe;" horiz-adv-x="235" d="M30 679q0 9 6 15t15 6h23q9 0 15 -6t6 -15v-149h5q10 25 35 25q35 0 55 -25.5t20 -74.5v-370q0 -50 -22.5 -75t-52.5 -25q-20 0 -35 25h-5v-169q0 -9 -6 -15t-15 -6h-23q-9 0 -15 6t-6 15v838zM145 455q0 35 -25 35q-15 0 -25 -35v-370q10 -35 25 -35q25 0 25 35v370z " />
<glyph unicode="&#xff;" horiz-adv-x="220" d="M97 -180h-23q-10 0 -16 7t-5 17l22 156l-67 516q-1 10 5 17t16 7h27q19 0 21 -19l28 -346h5l38 346q2 19 21 19h22q10 0 16 -7t5 -17l-94 -678q-2 -7 -8 -12.5t-13 -5.5zM92 660q0 -40 -40 -40t-40 40t40 40t40 -40zM212 660q0 -40 -40 -40t-40 40t40 40t40 -40z" />
<glyph unicode="&#x131;" horiz-adv-x="125" d="M74 0h-23q-9 0 -15 6t-6 15v498q0 9 6 15t15 6h23q9 0 15 -6t6 -15v-498q0 -9 -6 -15t-15 -6z" />
<glyph unicode="&#x152;" horiz-adv-x="365" d="M30 115v470q0 51 29.5 83t80.5 32h194q9 0 15 -6t6 -15v-28q0 -9 -6 -15t-15 -6h-73q-9 0 -15 -6t-6 -15v-203q0 -9 6 -15t15 -6h43q9 0 15 -6t6 -15v-28q0 -9 -6 -15t-15 -6h-43q-9 0 -15 -6t-6 -15v-203q0 -9 6 -15t15 -6h73q9 0 15 -6t6 -15v-28q0 -9 -6 -15t-15 -6 h-194q-51 0 -80.5 32t-29.5 83zM100 585v-470q0 -45 40 -45h15q15 0 15 15v530q0 15 -15 15h-15q-40 0 -40 -45z" />
<glyph unicode="&#x153;" horiz-adv-x="345" d="M179 532l10 9l14 9q13 5 27 5q42 0 66 -25t24 -75v-184q0 -9 -6 -15t-15 -6h-73q-9 0 -15 -6t-6 -15v-144q0 -35 25 -35t25 35v94q0 9 6 15t15 6h23q9 0 15 -6t6 -15v-94q0 -49 -24 -74.5t-66 -25.5q-15 0 -25 4t-17 11l-13 15h-5l-10 -12q-2 -3 -5 -5l-13 -8 q-10 -5 -27 -5q-42 0 -66 25.5t-24 74.5v370q0 50 23.5 75t66.5 25q14 0 27 -5l13 -8q3 -2 5 -5l4 -4q1 -4 7 -4q5 0 8 3zM90 455v-370q0 -35 25 -35t25 35v370q0 35 -25 35t-25 -35zM205 455v-119q0 -9 6 -15t15 -6h8q9 0 15 6t6 15v119q0 35 -25 35t-25 -35z" />
<glyph unicode="&#x178;" horiz-adv-x="260" d="M165 217v-196q0 -9 -6 -15t-15 -6h-28q-9 0 -15 6t-6 15v196l-85 458q-2 10 4 17.5t16 7.5h32q7 0 13.5 -5.5t7.5 -12.5l44 -299q0 -3 3 -3t3 3l44 299q1 7 7.5 12.5t13.5 5.5h32q10 0 16 -7.5t4 -17.5zM110 810q0 -40 -40 -40t-40 40t40 40t40 -40zM230 810 q0 -40 -40 -40t-40 40t40 40t40 -40z" />
<glyph unicode="&#x2c6;" horiz-adv-x="250" d="M38 594l51 95q2 4 8 7.5t11 3.5h34q5 0 11 -3.5t8 -7.5l51 -95q2 -3 2 -9t-4 -10.5t-12 -4.5h-16q-4 0 -10 3.5t-8 7.5l-21 36q-6 12 -18 12t-18 -12l-21 -36q-2 -4 -8 -7.5t-10 -3.5h-15q-18 0 -18 15q0 4 3 9z" />
<glyph unicode="&#x2da;" horiz-adv-x="210" d="M70 630q0 -15 10 -25t25 -10t25 10t10 25t-10 25t-25 10t-25 -10t-10 -25zM185 630q0 -35 -23.5 -55t-56.5 -20t-56.5 20t-23.5 55q0 34 22.5 54.5t57.5 20.5t57.5 -20.5t22.5 -54.5z" />
<glyph unicode="&#x2dc;" horiz-adv-x="220" d="M85 630q-15 0 -15 -15v-7q0 -8 -7 -8h-17q-9 0 -15 6t-6 15v24q0 19 13.5 32t36.5 13q7 0 14 -1.5t9 -3.5l14 -11l7 -7l4 -2q2 -1 3 -2l6 -2q3 -1 8 -1q10 3 10 15v8q0 7 8 7h16q9 0 15 -6t6 -15v-24q0 -20 -13.5 -32.5t-36.5 -12.5q-7 0 -14 1.5t-9 3.5l-14 11l-10 10 q-4 4 -13 4z" />
<glyph unicode="&#x2000;" horiz-adv-x="445" />
<glyph unicode="&#x2001;" horiz-adv-x="891" />
<glyph unicode="&#x2002;" horiz-adv-x="445" />
<glyph unicode="&#x2003;" horiz-adv-x="891" />
<glyph unicode="&#x2004;" horiz-adv-x="297" />
<glyph unicode="&#x2005;" horiz-adv-x="222" />
<glyph unicode="&#x2006;" horiz-adv-x="148" />
<glyph unicode="&#x2007;" horiz-adv-x="148" />
<glyph unicode="&#x2008;" horiz-adv-x="111" />
<glyph unicode="&#x2009;" horiz-adv-x="178" />
<glyph unicode="&#x200a;" horiz-adv-x="49" />
<glyph unicode="&#x2010;" horiz-adv-x="260" d="M219 290h-178q-9 0 -15 6t-6 15v23q0 9 6 15t15 6h178q9 0 15 -6t6 -15v-23q0 -9 -6 -15t-15 -6z" />
<glyph unicode="&#x2011;" horiz-adv-x="260" d="M219 290h-178q-9 0 -15 6t-6 15v23q0 9 6 15t15 6h178q9 0 15 -6t6 -15v-23q0 -9 -6 -15t-15 -6z" />
<glyph unicode="&#x2012;" horiz-adv-x="260" d="M219 290h-178q-9 0 -15 6t-6 15v23q0 9 6 15t15 6h178q9 0 15 -6t6 -15v-23q0 -9 -6 -15t-15 -6z" />
<glyph unicode="&#x2013;" horiz-adv-x="280" d="M15 311v23q0 9 6 15t15 6h208q9 0 15 -6t6 -15v-23q0 -9 -6 -15t-15 -6h-208q-9 0 -15 6t-6 15z" />
<glyph unicode="&#x2014;" horiz-adv-x="405" d="M15 311v23q0 9 6 15t15 6h333q9 0 15 -6t6 -15v-23q0 -9 -6 -15t-15 -6h-333q-9 0 -15 6t-6 15z" />
<glyph unicode="&#x2018;" horiz-adv-x="115" d="M20 590q0 20 5 37.5t12.5 33t20 28.5t20.5 13q4 0 7 -6q2 -6 2 -8q0 -5 -5 -10q-17 -18 -22 -46q0 -7 7 -7q33 -4 33 -40q0 -40 -40 -40t-40 45z" />
<glyph unicode="&#x2019;" horiz-adv-x="115" d="M95 660q0 -20 -5 -37.5t-12.5 -33t-20 -28.5t-20.5 -13q-4 0 -7 6q-2 6 -2 8q0 5 5 10q17 18 22 46q0 7 -7 7q-33 4 -33 40q0 40 40 40t40 -45z" />
<glyph unicode="&#x201a;" horiz-adv-x="115" d="M95 30q0 -20 -5 -37.5t-12.5 -33t-20 -28.5t-20.5 -13q-4 0 -7 6q-2 6 -2 8q0 5 5 10q17 18 22 46q0 7 -7 7q-33 4 -33 40q0 40 40 40t40 -45z" />
<glyph unicode="&#x201c;" horiz-adv-x="220" d="M20 590q0 20 5 37.5t12.5 33t20 28.5t20.5 13q4 0 7 -6q2 -6 2 -8q0 -5 -5 -10q-17 -18 -22 -46q0 -7 7 -7q33 -4 33 -40q0 -40 -40 -40t-40 45zM125 590q0 20 5 37.5t12.5 33t20 28.5t20.5 13q4 0 7 -6q2 -6 2 -8q0 -5 -5 -10q-17 -18 -22 -46q0 -7 7 -7q33 -4 33 -40 q0 -40 -40 -40t-40 45z" />
<glyph unicode="&#x201d;" horiz-adv-x="220" d="M95 660q0 -20 -5 -37.5t-12.5 -33t-20 -28.5t-20.5 -13q-4 0 -7 6q-2 6 -2 8q0 5 5 10q17 18 22 46q0 7 -7 7q-33 4 -33 40q0 40 40 40t40 -45zM200 660q0 -20 -5 -37.5t-12.5 -33t-20 -28.5t-20.5 -13q-4 0 -7 6q-2 6 -2 8q0 5 5 10q17 18 22 46q0 7 -7 7q-33 4 -33 40 q0 40 40 40t40 -45z" />
<glyph unicode="&#x201e;" horiz-adv-x="220" d="M95 30q0 -20 -5 -37.5t-12.5 -33t-20 -28.5t-20.5 -13q-4 0 -7 6q-2 6 -2 8q0 5 5 10q17 18 22 46q0 7 -7 7q-33 4 -33 40q0 40 40 40t40 -45zM200 30q0 -20 -5 -37.5t-12.5 -33t-20 -28.5t-20.5 -13q-4 0 -7 6q-2 6 -2 8q0 5 5 10q17 18 22 46q0 7 -7 7q-33 4 -33 40 q0 40 40 40t40 -45z" />
<glyph unicode="&#x2022;" horiz-adv-x="180" d="M150 350q0 -26 -17 -43t-43 -17t-43 17t-17 43t17 43t43 17t43 -17t17 -43z" />
<glyph unicode="&#x2026;" horiz-adv-x="390" d="M100 35q0 -40 -40 -40t-40 40t40 40t40 -40zM235 35q0 -40 -40 -40t-40 40t40 40t40 -40zM370 35q0 -40 -40 -40t-40 40t40 40t40 -40z" />
<glyph unicode="&#x202f;" horiz-adv-x="178" />
<glyph unicode="&#x2039;" horiz-adv-x="215" d="M100 280l88 -109q4 -5 4 -13q0 -10 -7 -16l-14 -13q-5 -5 -14 -5q-10 0 -16 7l-126 149v5l126 149q7 7 16 7q7 0 14 -5l14 -13q7 -6 7 -16q0 -8 -4 -13l-88 -109v-5z" />
<glyph unicode="&#x203a;" horiz-adv-x="215" d="M27 171l88 109v5l-88 109q-4 5 -4 13q0 10 7 16l14 13q7 5 13 5q8 0 17 -7l126 -149v-5l-126 -149q-7 -7 -17 -7q-8 0 -13 5l-14 13q-7 6 -7 16q0 8 4 13z" />
<glyph unicode="&#x2044;" horiz-adv-x="270" d="M8 26l202 659q2 6 8 10.5t13 4.5h12q8 0 14 -6t6 -14q0 -2 -0.5 -3t-0.5 -3l-202 -659q-2 -6 -8 -10.5t-13 -4.5h-11q-10 0 -15.5 6t-5.5 14z" />
<glyph unicode="&#x205f;" horiz-adv-x="222" />
<glyph unicode="&#x2074;" horiz-adv-x="210" d="M10 436v30q1 2 1 4q0 3 1 4l93 218q2 5 8 9t11 4h25q9 0 15 -6t6 -15v-199q0 -9 4.5 -11.5t10.5 -4t10.5 -3.5t4.5 -11v-25q0 -9 -4.5 -11.5t-10.5 -4t-10.5 -3.5t-4.5 -11v-34q0 -9 -6 -15t-15 -6h-13q-9 0 -15 6t-6 15v28q0 9 -6 15t-15 6h-63q-9 0 -15 6t-6 15z M90 470h4q9 0 15 6t6 15v89h-5l-36 -87q-1 -2 -1 -7q0 -16 17 -16z" />
<glyph unicode="&#x20ac;" horiz-adv-x="305" d="M231 240h28q9 0 15 -6t6 -15v-119q0 -54 -30.5 -84.5t-79.5 -30.5q-51 0 -80.5 32t-29.5 83v149q0 9 -6 15t-15 6h-3q-9 0 -15 6t-6 15v23q0 9 6 15t15 6h9q15 0 15 15t-15 15h-9q-9 0 -15 6t-6 15v23q0 9 6 15t15 6h3q9 0 15 6t6 15v149q0 51 29.5 83t80.5 32 q49 0 79.5 -30.5t30.5 -84.5v-119q0 -9 -6 -15t-15 -6h-28q-9 0 -15 6t-6 15v119q0 45 -40 45t-40 -45v-149q0 -9 6 -15t15 -6h58q9 0 15 -6t6 -15v-23q0 -9 -6 -15t-15 -6h-64q-15 0 -15 -15t15 -15h64q9 0 15 -6t6 -15v-23q0 -9 -6 -15t-15 -6h-58q-9 0 -15 -6t-6 -15 v-149q0 -45 40 -45t40 45v119q0 9 6 15t15 6z" />
<glyph unicode="&#x20bd;" horiz-adv-x="295" d="M270 585v-210q0 -54 -30.5 -84.5t-79.5 -30.5h-20q-8 0 -14 -6t-6 -14t6 -14t14 -6h59q9 0 15 -6t6 -15v-28q0 -9 -6 -15t-15 -6h-58q-9 0 -15 -6t-6 -15v-108q0 -9 -6 -15t-15 -6h-28q-9 0 -15 6t-6 15v108q0 9 -6 15t-15 6h-3q-9 0 -15 6t-6 15v28q0 9 6 15t15 6h4 q8 0 14 6t6 14t-6 14t-14 6h-4q-9 0 -15 6t-6 15v28q0 9 6 15t15 6h3q9 0 15 6t6 15v328q0 9 6 15t15 6h89q49 0 79.5 -30.5t30.5 -84.5zM200 375v210q0 45 -40 45h-20q-8 0 -14 -6t-6 -14v-260q0 -8 6 -14t14 -6h20q40 0 40 45z" />
<glyph unicode="&#x2122;" horiz-adv-x="400" d="M238 683l27 -143h5l27 143q1 7 7 12t13 5h18q9 0 15 -5.5t6 -13.5l22 -298q0 -10 -5 -16.5t-16 -6.5h-7q-8 0 -14.5 6t-6.5 14l-9 190h-5l-26 -123q-2 -7 -8 -12t-14 -5q-7 0 -13 5t-8 12l-26 123h-5l-9 -190q0 -8 -6.5 -14t-14.5 -6h-7q-11 0 -16 6.5t-5 16.5l22 298 q0 8 6 13.5t15 5.5h18q7 0 13 -5t7 -12zM155 679v-8q0 -9 -6 -15t-15 -6h-8q-9 0 -15 -6t-6 -15v-248q0 -9 -6 -15t-15 -6h-8q-9 0 -15 6t-6 15v248q0 9 -6 15t-15 6h-8q-9 0 -15 6t-6 15v8q0 9 6 15t15 6h108q9 0 15 -6t6 -15z" />
<glyph unicode="&#x25fc;" horiz-adv-x="540" d="M0 540h540v-540h-540v540z" />
</font>
</defs>
</svg>
